<svg width="30" height="30" viewBox="0 0 30 30" fill="none" xmlns="http://www.w3.org/2000/svg">
<path d="M24.0384 29.932C22.566 29.7848 20.9422 29.2664 19.379 28.5443C15.9802 26.971 13.1039 24.6715 10.4212 22.1098C7.40562 19.2294 4.52927 16.232 2.42545 12.5932C1.34228 10.7234 0.503178 8.7628 0.0896767 6.62067C-0.150356 5.38017 0.0755572 4.27481 0.973157 3.43772C2.09062 2.39489 3.27666 1.40652 4.53532 0.543211C5.78792 -0.318081 7.01632 0.0248225 7.8756 1.28953C8.98701 2.92538 10.0722 4.57737 11.1917 6.20717C11.8956 7.22983 11.9198 8.27265 11.3692 9.34372C11.0041 10.0537 10.6168 10.7537 10.2073 11.4395C10.0177 11.7561 10.0339 11.978 10.2719 12.2645C12.525 14.9734 15.012 17.4463 17.729 19.6933C18.0497 19.9576 18.2918 19.9394 18.6186 19.7498C19.2701 19.3686 19.9357 19.0075 20.6054 18.6525C21.6986 18.0736 22.7657 18.0716 23.8166 18.7836C25.4564 19.893 27.1145 20.9782 28.7584 22.0816C30.0332 22.9388 30.3902 24.1551 29.5289 25.4037C28.6515 26.6765 27.6208 27.8524 26.5759 28.9981C25.999 29.6315 25.1922 29.9583 24.0384 29.93V29.932ZM24.2139 28.3244C24.6879 28.0582 25.2063 27.9008 25.5291 27.5579C26.3641 26.6684 27.1427 25.7224 27.883 24.7522C28.3933 24.0825 28.3227 23.901 27.6087 23.4249C26.0535 22.3882 24.4802 21.3776 22.9432 20.3146C22.3844 19.9293 21.9044 19.9334 21.3436 20.2581C20.4783 20.7604 19.5847 21.2162 18.7174 21.7185C18.1808 22.0291 17.7331 21.9767 17.253 21.5894C13.9793 18.9571 11.0243 16.0142 8.38188 12.7566C7.99259 12.2766 7.9462 11.8328 8.25884 11.2983C8.7853 10.3987 9.27343 9.47483 9.78174 8.56513C10.0258 8.12743 10.0823 7.71392 9.77367 7.2621C8.66024 5.62826 7.55892 3.98636 6.46768 2.33639C6.12074 1.81195 5.73548 1.73329 5.25541 2.12662C4.29125 2.9153 3.32104 3.69389 2.37906 4.50677C1.78201 5.02112 1.68317 5.70088 1.84655 6.45325C2.34679 8.7628 3.36945 10.8404 4.65029 12.805C6.93967 16.3188 9.88057 19.2556 12.9768 22.0493C15.2662 24.1148 17.7411 25.9322 20.6074 27.1323C21.747 27.6084 22.9573 27.915 24.2139 28.3244Z" fill="black"/>
<path d="M27.9577 12.5611H26.1967C26.104 11.9822 26.0434 11.3932 25.9123 10.8203C24.9764 6.74179 21.6785 3.88763 17.3357 3.44185C16.6701 3.37327 16.6943 3.39748 16.6903 2.11461C16.6882 1.47722 17.13 1.61438 17.4809 1.63455C22.5579 1.92904 27.0258 5.97732 27.7801 10.9635C27.8548 11.4618 27.8931 11.966 27.9577 12.5611Z" fill="black"/>
<path d="M16.5611 6.45942C16.5611 5.45491 16.6519 5.37423 17.5051 5.50937C20.8172 6.03381 23.2054 8.26067 23.9517 11.5223C23.9719 11.609 24.0142 11.6958 24.0082 11.7805C23.984 12.0971 24.0183 12.6498 23.8972 12.6882C23.4474 12.8293 22.9452 12.8193 22.4631 12.8132C22.3864 12.8132 22.2695 12.5429 22.2453 12.3856C21.8257 9.66657 20.1273 7.86129 17.3801 7.35903C16.7084 7.23599 16.4098 7.03428 16.5631 6.46143L16.5611 6.45942Z" fill="black"/>
</svg>
