<svg width="19" height="23" viewBox="0 0 19 23" fill="none" xmlns="http://www.w3.org/2000/svg">
<path d="M13.8751 0.51101C13.8284 0.45876 12.144 0.531635 10.6783 2.12251C9.21252 3.71201 9.43802 5.53526 9.47102 5.58201C9.50402 5.62876 11.561 5.70163 12.8741 3.85226C14.1873 2.00288 13.9219 0.564635 13.8751 0.51101ZM18.4319 16.6439C18.3659 16.5119 15.235 14.9471 15.5265 11.9386C15.818 8.93013 17.8296 8.10376 17.8613 8.01438C17.8929 7.92501 17.0404 6.92813 16.137 6.42351C15.4736 6.06807 14.7396 5.86426 13.9879 5.82676C13.8394 5.82263 13.3238 5.69613 12.2636 5.98626C11.5651 6.17738 9.99077 6.79613 9.55765 6.82088C9.12315 6.84563 7.83065 6.10313 6.44052 5.90651C5.5509 5.73463 4.60765 6.08663 3.93252 6.35751C3.25877 6.62701 1.97727 7.39426 1.08077 9.43338C0.184273 11.4711 0.653148 14.6996 0.988648 15.7034C1.32415 16.7071 1.84802 18.3489 2.73902 19.5479C3.53102 20.9009 4.58152 21.84 5.02015 22.159C5.45877 22.478 6.69627 22.6898 7.55427 22.2511C8.24452 21.8276 9.49027 21.5843 9.98252 21.6021C10.4734 21.62 11.4414 21.8139 12.4328 22.3433C13.2179 22.6141 13.9604 22.5014 14.7043 22.1989C15.4481 21.895 16.5248 20.7428 17.7815 18.4066C18.2582 17.3204 18.475 16.7328 18.4319 16.6439Z" fill="black"/>
<path d="M13.8751 0.51101C13.8284 0.45876 12.144 0.531635 10.6783 2.12251C9.21252 3.71201 9.43802 5.53526 9.47102 5.58201C9.50402 5.62876 11.561 5.70163 12.8741 3.85226C14.1873 2.00288 13.9219 0.564635 13.8751 0.51101ZM18.4319 16.6439C18.3659 16.5119 15.235 14.9471 15.5265 11.9386C15.818 8.93013 17.8296 8.10376 17.8613 8.01438C17.8929 7.92501 17.0404 6.92813 16.137 6.42351C15.4736 6.06807 14.7396 5.86426 13.9879 5.82676C13.8394 5.82263 13.3238 5.69613 12.2636 5.98626C11.5651 6.17738 9.99077 6.79613 9.55765 6.82088C9.12315 6.84563 7.83065 6.10313 6.44052 5.90651C5.5509 5.73463 4.60765 6.08663 3.93252 6.35751C3.25877 6.62701 1.97727 7.39426 1.08077 9.43338C0.184273 11.4711 0.653148 14.6996 0.988648 15.7034C1.32415 16.7071 1.84802 18.3489 2.73902 19.5479C3.53102 20.9009 4.58152 21.84 5.02015 22.159C5.45877 22.478 6.69627 22.6898 7.55427 22.2511C8.24452 21.8276 9.49027 21.5843 9.98252 21.6021C10.4734 21.62 11.4414 21.8139 12.4328 22.3433C13.2179 22.6141 13.9604 22.5014 14.7043 22.1989C15.4481 21.895 16.5248 20.7428 17.7815 18.4066C18.2582 17.3204 18.475 16.7328 18.4319 16.6439Z" fill="black"/>
</svg>
