<svg width="17" height="19" viewBox="0 0 17 19" fill="none" xmlns="http://www.w3.org/2000/svg">
<path fill-rule="evenodd" clip-rule="evenodd" d="M12.2115 7.41428C12.2638 7.46653 12.3054 7.5286 12.3338 7.59694C12.3621 7.66528 12.3767 7.73854 12.3767 7.81253C12.3767 7.88652 12.3621 7.95978 12.3338 8.02812C12.3054 8.09645 12.2638 8.15853 12.2115 8.21078L8.83646 11.5858C8.78421 11.6382 8.72214 11.6797 8.6538 11.7081C8.58546 11.7364 8.5122 11.751 8.43821 11.751C8.36422 11.751 8.29096 11.7364 8.22262 11.7081C8.15428 11.6797 8.09221 11.6382 8.03996 11.5858L6.35246 9.89828C6.30016 9.84598 6.25868 9.78389 6.23037 9.71556C6.20207 9.64723 6.1875 9.57399 6.1875 9.50003C6.1875 9.42607 6.20207 9.35283 6.23037 9.2845C6.25868 9.21617 6.30016 9.15408 6.35246 9.10178C6.40476 9.04948 6.46685 9.00799 6.53518 8.97969C6.60351 8.95139 6.67675 8.93682 6.75071 8.93682C6.82467 8.93682 6.89791 8.95139 6.96624 8.97969C7.03457 9.00799 7.09666 9.04948 7.14896 9.10178L8.43821 10.3922L11.415 7.41428C11.4672 7.36189 11.5293 7.32033 11.5976 7.29198C11.666 7.26362 11.7392 7.24902 11.8132 7.24902C11.8872 7.24902 11.9605 7.26362 12.0288 7.29198C12.0971 7.32033 12.1592 7.36189 12.2115 7.41428Z" fill="black"/>
<path d="M3.375 0.5H14.625C15.2217 0.5 15.794 0.737053 16.216 1.15901C16.6379 1.58097 16.875 2.15326 16.875 2.75V16.25C16.875 16.8467 16.6379 17.419 16.216 17.841C15.794 18.2629 15.2217 18.5 14.625 18.5H3.375C2.77826 18.5 2.20597 18.2629 1.78401 17.841C1.36205 17.419 1.125 16.8467 1.125 16.25V15.125H2.25V16.25C2.25 16.5484 2.36853 16.8345 2.5795 17.0455C2.79048 17.2565 3.07663 17.375 3.375 17.375H14.625C14.9234 17.375 15.2095 17.2565 15.4205 17.0455C15.6315 16.8345 15.75 16.5484 15.75 16.25V2.75C15.75 2.45163 15.6315 2.16548 15.4205 1.9545C15.2095 1.74353 14.9234 1.625 14.625 1.625H3.375C3.07663 1.625 2.79048 1.74353 2.5795 1.9545C2.36853 2.16548 2.25 2.45163 2.25 2.75V3.875H1.125V2.75C1.125 2.15326 1.36205 1.58097 1.78401 1.15901C2.20597 0.737053 2.77826 0.5 3.375 0.5Z" fill="black"/>
<path d="M1.125 6.125V5.5625C1.125 5.41332 1.18426 5.27024 1.28975 5.16475C1.39524 5.05926 1.53832 5 1.6875 5C1.83668 5 1.97976 5.05926 2.08525 5.16475C2.19074 5.27024 2.25 5.41332 2.25 5.5625V6.125H2.8125C2.96168 6.125 3.10476 6.18426 3.21025 6.28975C3.31574 6.39524 3.375 6.53832 3.375 6.6875C3.375 6.83668 3.31574 6.97976 3.21025 7.08525C3.10476 7.19074 2.96168 7.25 2.8125 7.25H0.5625C0.413316 7.25 0.270242 7.19074 0.164752 7.08525C0.0592632 6.97976 0 6.83668 0 6.6875C0 6.53832 0.0592632 6.39524 0.164752 6.28975C0.270242 6.18426 0.413316 6.125 0.5625 6.125H1.125ZM1.125 9.5V8.9375C1.125 8.78832 1.18426 8.64524 1.28975 8.53975C1.39524 8.43426 1.53832 8.375 1.6875 8.375C1.83668 8.375 1.97976 8.43426 2.08525 8.53975C2.19074 8.64524 2.25 8.78832 2.25 8.9375V9.5H2.8125C2.96168 9.5 3.10476 9.55926 3.21025 9.66475C3.31574 9.77024 3.375 9.91332 3.375 10.0625C3.375 10.2117 3.31574 10.3548 3.21025 10.4602C3.10476 10.5657 2.96168 10.625 2.8125 10.625H0.5625C0.413316 10.625 0.270242 10.5657 0.164752 10.4602C0.0592632 10.3548 0 10.2117 0 10.0625C0 9.91332 0.0592632 9.77024 0.164752 9.66475C0.270242 9.55926 0.413316 9.5 0.5625 9.5H1.125ZM1.125 12.875V12.3125C1.125 12.1633 1.18426 12.0202 1.28975 11.9148C1.39524 11.8093 1.53832 11.75 1.6875 11.75C1.83668 11.75 1.97976 11.8093 2.08525 11.9148C2.19074 12.0202 2.25 12.1633 2.25 12.3125V12.875H2.8125C2.96168 12.875 3.10476 12.9343 3.21025 13.0398C3.31574 13.1452 3.375 13.2883 3.375 13.4375C3.375 13.5867 3.31574 13.7298 3.21025 13.8352C3.10476 13.9407 2.96168 14 2.8125 14H0.5625C0.413316 14 0.270242 13.9407 0.164752 13.8352C0.0592632 13.7298 0 13.5867 0 13.4375C0 13.2883 0.0592632 13.1452 0.164752 13.0398C0.270242 12.9343 0.413316 12.875 0.5625 12.875H1.125Z" fill="black"/>
</svg>
