<svg xmlns="http://www.w3.org/2000/svg" xmlns:xlink="http://www.w3.org/1999/xlink" width="500" zoomAndPan="magnify" viewBox="0 0 375 374.999991" height="500" preserveAspectRatio="xMidYMid meet" version="1.0"><defs><g/><clipPath id="16fb1abb2b"><path d="M 12 124 L 126.5 124 L 126.5 254 L 12 254 Z M 12 124 " clip-rule="nonzero"/></clipPath></defs><g clip-path="url(#16fb1abb2b)"><path fill="#ffffff" d="M 117.660156 131.617188 C 112.519531 126.71875 105.628906 123.984375 98.527344 124.011719 C 91.195312 124.039062 84.300781 126.90625 79.113281 132.09375 L 69.222656 141.988281 L 59.578125 132.339844 C 48.832031 121.597656 31.335938 121.261719 20.488281 131.902344 C 9.53125 142.644531 9.46875 160.300781 20.292969 171.125 L 72.679688 223.507812 C 78.65625 229.488281 78.9375 239.222656 73.074219 245.3125 C 67.078125 251.546875 57.117188 251.621094 51.027344 245.53125 L 38.050781 232.554688 C 37.503906 232.007812 37.449219 231.140625 37.917969 230.523438 C 39.835938 228.003906 40.898438 224.800781 40.660156 221.351562 C 40.191406 214.539062 34.621094 209.058594 27.800781 208.703125 C 19.902344 208.292969 13.355469 214.652344 13.460938 222.484375 C 13.554688 229.742188 19.46875 235.730469 26.722656 235.914062 C 29.0625 235.972656 31.273438 235.4375 33.21875 234.449219 C 33.808594 234.148438 34.523438 234.277344 34.992188 234.742188 L 48.398438 248.152344 C 52.132812 251.886719 57.035156 253.75 61.9375 253.75 C 66.839844 253.75 71.746094 251.882812 75.480469 248.152344 C 82.945312 240.6875 82.945312 228.535156 75.480469 221.070312 L 22.917969 168.503906 C 13.605469 159.1875 13.605469 144.035156 22.917969 134.71875 C 32.234375 125.402344 47.390625 125.402344 56.703125 134.71875 L 67.863281 145.875 C 68.234375 146.25 68.730469 146.425781 69.222656 146.414062 C 69.714844 146.425781 70.207031 146.25 70.582031 145.875 L 81.515625 134.941406 C 86.050781 130.40625 92.171875 127.734375 98.585938 127.722656 C 104.984375 127.710938 111.003906 130.195312 115.527344 134.71875 C 120.046875 139.242188 122.53125 145.253906 122.523438 151.648438 C 122.515625 158.0625 119.839844 164.191406 115.304688 168.730469 L 111.769531 172.261719 C 111.480469 172.554688 111.085938 172.71875 110.671875 172.71875 L 100.136719 172.71875 C 99.554688 172.71875 99.015625 172.386719 98.753906 171.863281 L 93.667969 161.6875 C 93.097656 160.546875 91.472656 160.546875 90.902344 161.6875 L 82.15625 179.164062 C 81.589844 180.304688 79.960938 180.304688 79.394531 179.164062 L 76.40625 173.1875 C 75.835938 172.046875 74.210938 172.046875 73.644531 173.1875 L 70.65625 179.160156 C 70.085938 180.300781 68.460938 180.300781 67.890625 179.160156 L 59.152344 161.679688 C 58.582031 160.539062 56.957031 160.539062 56.390625 161.679688 L 51.300781 171.859375 C 51.039062 172.378906 50.503906 172.710938 49.917969 172.710938 L 40.59375 172.710938 C 39.578125 172.710938 38.691406 173.492188 38.660156 174.511719 C 38.628906 175.5625 39.472656 176.421875 40.515625 176.421875 L 52.210938 176.421875 C 52.796875 176.421875 53.335938 176.089844 53.59375 175.566406 L 56.390625 169.976562 C 56.957031 168.835938 58.582031 168.835938 59.152344 169.976562 L 67.890625 187.457031 C 68.460938 188.597656 70.085938 188.597656 70.65625 187.457031 L 73.644531 181.480469 C 74.210938 180.339844 75.835938 180.339844 76.40625 181.480469 L 79.394531 187.457031 C 79.960938 188.597656 81.589844 188.597656 82.15625 187.457031 L 90.898438 169.980469 C 91.464844 168.839844 93.09375 168.835938 93.660156 169.980469 L 96.457031 175.570312 C 96.722656 176.09375 97.257812 176.425781 97.839844 176.425781 L 112.078125 176.425781 C 112.078125 176.425781 112.078125 176.425781 112.082031 176.425781 C 112.199219 176.425781 112.308594 176.414062 112.417969 176.394531 C 112.421875 176.394531 112.433594 176.390625 112.4375 176.390625 C 112.546875 176.367188 112.65625 176.339844 112.757812 176.296875 C 112.765625 176.292969 112.777344 176.292969 112.785156 176.289062 C 112.886719 176.246094 112.984375 176.191406 113.078125 176.132812 C 113.089844 176.128906 113.097656 176.125 113.105469 176.117188 C 113.207031 176.050781 113.296875 175.976562 113.386719 175.894531 C 113.386719 175.890625 113.386719 175.890625 113.390625 175.886719 L 117.878906 171.398438 C 123.191406 166.085938 126.292969 158.890625 126.234375 151.378906 C 126.171875 143.867188 123.125 136.828125 117.660156 131.617188 Z M 17.167969 222.300781 C 17.167969 216.835938 21.613281 212.394531 27.074219 212.394531 C 32.535156 212.394531 36.980469 216.839844 36.980469 222.300781 C 36.980469 227.761719 32.535156 232.207031 27.074219 232.207031 C 21.613281 232.207031 17.167969 227.761719 17.167969 222.300781 Z M 17.167969 222.300781 " fill-opacity="1" fill-rule="nonzero"/></g><g fill="#ffffff" fill-opacity="1"><g transform="translate(92.284944, 231.324235)"><g><path d="M 49.4375 0 L 49.4375 -46.78125 L 44.3125 -46.78125 L 27 -5.828125 L 26.8125 -5.828125 L 9.46875 -46.78125 L 4.375 -46.78125 L 4.375 0 L 8.53125 0 L 8.53125 -38.375 L 8.71875 -38.375 L 24.96875 -0.234375 L 28.8125 -0.234375 L 45.09375 -38.375 L 45.28125 -38.375 L 45.28125 0 Z M 49.4375 0 "/></g></g></g><g fill="#ffffff" fill-opacity="1"><g transform="translate(143.712659, 231.324235)"><g><path d="M 17.375 0.546875 C 26.546875 0.546875 32.734375 -6.15625 32.734375 -16.859375 C 32.734375 -27.59375 26.546875 -34.265625 17.375 -34.265625 C 8.234375 -34.265625 2.015625 -27.59375 2.015625 -16.859375 C 2.015625 -6.15625 8.203125 0.546875 17.375 0.546875 Z M 17.375 -3.234375 C 10.765625 -3.234375 6.390625 -8.296875 6.390625 -16.859375 C 6.390625 -25.421875 10.765625 -30.46875 17.375 -30.46875 C 23.984375 -30.46875 28.390625 -25.421875 28.390625 -16.859375 C 28.390625 -8.296875 23.984375 -3.234375 17.375 -3.234375 Z M 19.125 -38.828125 L 27.09375 -48.625 L 22.375 -48.625 L 15.265625 -38.828125 Z M 19.125 -38.828125 "/></g></g></g><g fill="#ffffff" fill-opacity="1"><g transform="translate(176.077127, 231.324235)"><g><path d="M 8.265625 -33.71875 L 3.984375 -33.71875 L 3.984375 2.203125 C 3.984375 6.28125 2.40625 7.84375 -1.59375 7.84375 C -1.625 7.84375 -2.4375 7.84375 -2.46875 7.84375 L -2.46875 11.46875 C -2.4375 11.515625 -1.53125 11.515625 -1.421875 11.515625 C 5.15625 11.515625 8.265625 8.6875 8.265625 2.140625 Z M 6.125 -40.515625 C 7.71875 -40.515625 9.015625 -41.78125 9.015625 -43.375 C 9.015625 -44.9375 7.71875 -46.1875 6.125 -46.1875 C 4.578125 -46.1875 3.28125 -44.9375 3.28125 -43.375 C 3.28125 -41.78125 4.578125 -40.515625 6.125 -40.515625 Z M 6.125 -40.515625 "/></g></g></g><g fill="#ffffff" fill-opacity="1"><g transform="translate(185.941776, 231.324235)"><g><path d="M 32.21875 -4.015625 L 8.78125 -4.015625 L 8.78125 -46.78125 L 4.375 -46.78125 L 4.375 0 L 32.21875 0 Z M 32.21875 -4.015625 "/></g></g></g><g fill="#ffffff" fill-opacity="1"><g transform="translate(217.657831, 231.324235)"><g><path d="M 17.015625 -30.5 C 23.109375 -30.5 27.171875 -25.875 27.265625 -19.21875 L 6.453125 -19.21875 C 6.8125 -25.875 10.984375 -30.5 17.015625 -30.5 Z M 27 -9.5625 C 26.0625 -5.875 22.53125 -3.203125 17.4375 -3.203125 C 10.734375 -3.203125 6.421875 -7.9375 6.421875 -15.5625 L 6.421875 -15.8125 L 31.671875 -15.8125 L 31.671875 -17.640625 C 31.671875 -27.6875 26.03125 -34.265625 17.078125 -34.265625 C 7.9375 -34.265625 2.015625 -27.234375 2.015625 -16.765625 C 2.015625 -6.0625 7.875 0.546875 17.34375 0.546875 C 24.765625 0.546875 30.25 -3.734375 31.25 -9.5625 Z M 27 -9.5625 "/></g></g></g><g fill="#ffffff" fill-opacity="1"><g transform="translate(248.984839, 231.324235)"><g><path d="M 8.296875 -17.765625 L 8.296875 -46.78125 L 3.984375 -46.78125 L 3.984375 0 L 8.296875 0 L 8.296875 -13.0625 L 12.0625 -16.53125 L 25.546875 0 L 30.5625 0 L 15.140625 -19.15625 L 30.28125 -33.71875 L 24.96875 -33.71875 Z M 8.296875 -17.765625 "/></g></g></g><g fill="#ffffff" fill-opacity="1"><g transform="translate(277.620947, 231.324235)"><g><path d="M 14.5625 -3.140625 C 9.984375 -3.140625 6.84375 -5.671875 6.84375 -9.34375 C 6.84375 -13.0625 9.796875 -15.359375 15.109375 -15.71875 L 25.09375 -16.40625 L 25.09375 -12.671875 C 25.09375 -7.328125 20.453125 -3.140625 14.5625 -3.140625 Z M 13.6875 0.546875 C 18.703125 0.546875 23.3125 -2.234375 25.1875 -6.421875 L 25.28125 -6.421875 L 25.28125 0 L 29.375 0 L 29.375 -23.078125 C 29.375 -29.953125 24.546875 -34.265625 16.859375 -34.265625 C 9.171875 -34.265625 4.21875 -29.984375 3.734375 -23.953125 L 7.875 -23.953125 C 8.625 -28.046875 11.796875 -30.46875 16.765625 -30.46875 C 22.015625 -30.46875 25.09375 -27.5625 25.09375 -22.6875 L 25.09375 -19.78125 L 14.59375 -19.125 C 6.8125 -18.609375 2.5 -15.109375 2.5 -9.34375 C 2.5 -3.4375 7.03125 0.546875 13.6875 0.546875 Z M 13.6875 0.546875 "/></g></g></g><g fill="#ffffff" fill-opacity="1"><g transform="translate(308.105035, 231.324235)"><g><path d="M 3.703125 0 L 7.96875 0 L 7.96875 -21 C 7.96875 -26.453125 11.015625 -30.1875 15.8125 -30.1875 C 17.28125 -30.1875 18.484375 -29.953125 19.03125 -29.6875 L 19.03125 -33.90625 C 18.515625 -34.03125 17.5 -34.265625 16.375 -34.265625 C 12.21875 -34.265625 9.078125 -31.828125 7.84375 -27.71875 L 7.75 -27.71875 L 7.75 -33.71875 L 3.703125 -33.71875 Z M 3.703125 0 "/></g></g></g><g fill="#ffffff" fill-opacity="1"><g transform="translate(325.653335, 231.324235)"><g><path d="M 2.59375 0 L 27.65625 0 L 27.65625 -3.5625 L 7.515625 -3.5625 L 7.515625 -3.65625 L 27.59375 -30.46875 L 27.59375 -33.71875 L 2.59375 -33.71875 L 2.59375 -30.140625 L 22.65625 -30.140625 L 22.65625 -30.046875 L 2.59375 -3.171875 Z M 2.59375 0 "/></g></g></g></svg>