<svg width="20" height="21" viewBox="0 0 20 21" fill="none" xmlns="http://www.w3.org/2000/svg">
<g clip-path="url(#clip0_804_723)">
<path d="M19.9905 10.6935C19.9905 9.84195 19.9224 9.22056 19.7752 8.57617H10.1992V12.4195H15.8201C15.7068 13.3747 15.0948 14.8131 13.7349 15.7796L13.7159 15.9083L16.7436 18.29L16.9534 18.3112C18.8798 16.5046 19.9905 13.8464 19.9905 10.6935Z" fill="#4285F4"/>
<path d="M10.1992 20.8199C12.953 20.8199 15.2648 19.8993 16.9534 18.3113L13.7349 15.7797C12.8737 16.3896 11.7177 16.8153 10.1992 16.8153C7.50211 16.8153 5.21297 15.0088 4.39695 12.5117L4.27734 12.522L1.12906 14.9961L1.08789 15.1123C2.76508 18.4954 6.21016 20.8199 10.1992 20.8199Z" fill="#34A853"/>
<path d="M4.39695 12.5113C4.18164 11.8669 4.05703 11.1764 4.05703 10.463C4.05703 9.7495 4.18164 9.0591 4.38562 8.4147L4.37992 8.27746L1.19219 5.76367L1.08789 5.81405C0.396641 7.21794 0 8.79445 0 10.463C0 12.1315 0.396641 13.708 1.08789 15.1119L4.39695 12.5113Z" fill="#FBBC05"/>
<path d="M10.1992 4.11189C12.1144 4.11189 13.4062 4.95191 14.1429 5.6539L17.0213 2.8001C15.2535 1.13156 12.953 0.107422 10.1992 0.107422C6.21016 0.107422 2.76508 2.43185 1.08789 5.81494L4.38563 8.4156C5.21297 5.91854 7.50211 4.11189 10.1992 4.11189Z" fill="#EB4335"/>
</g>
<defs>
<clipPath id="clip0_804_723">
<rect width="20" height="20.7843" fill="white" transform="translate(0 0.107422)"/>
</clipPath>
</defs>
</svg>
