<svg width="24" height="24" viewBox="0 0 24 24" fill="none" xmlns="http://www.w3.org/2000/svg">
<path d="M13.61 12.2428C13.604 12.5596 13.504 12.8674 13.3228 13.1274C13.1416 13.3873 12.8873 13.5875 12.5921 13.7028C12.297 13.818 11.9743 13.843 11.6649 13.7746C11.3555 13.7062 11.0734 13.5475 10.8544 13.3186C10.6353 13.0897 10.4891 12.8009 10.4344 12.4888C10.3796 12.1767 10.4187 11.8554 10.5468 11.5656C10.6749 11.2758 10.8861 11.0305 11.1537 10.8609C11.4213 10.6913 11.7332 10.6049 12.05 10.6128C12.4709 10.6284 12.8692 10.8073 13.1604 11.1116C13.4516 11.4159 13.6129 11.8216 13.61 12.2428Z" fill="white"/>
<path d="M14.763 7.2334H9.33797C8.80117 7.2334 8.28635 7.44664 7.90678 7.82621C7.52721 8.20579 7.31396 8.7206 7.31396 9.2574V14.8044C7.31396 15.0702 7.36632 15.3334 7.46803 15.5789C7.56975 15.8245 7.71883 16.0476 7.90678 16.2356C8.09473 16.4235 8.31785 16.5726 8.56341 16.6743C8.80898 16.776 9.07217 16.8284 9.33797 16.8284H14.763C15.0288 16.8284 15.292 16.776 15.5375 16.6743C15.7831 16.5726 16.0062 16.4235 16.1941 16.2356C16.3821 16.0476 16.5312 15.8245 16.6329 15.5789C16.7346 15.3334 16.787 15.0702 16.787 14.8044V9.2674C16.788 9.00084 16.7365 8.73669 16.6352 8.49009C16.534 8.24349 16.3851 8.01929 16.1971 7.83033C16.0091 7.64138 15.7856 7.49139 15.5395 7.38896C15.2934 7.28652 15.0295 7.23366 14.763 7.2334ZM12.05 14.9564C11.5129 14.9685 10.9845 14.8204 10.532 14.5308C10.0795 14.2413 9.72362 13.8235 9.50965 13.3308C9.29568 12.838 9.23338 12.2927 9.33068 11.7645C9.42799 11.2362 9.68049 10.7489 10.056 10.3647C10.4314 9.98057 10.9129 9.71701 11.4388 9.60767C11.9647 9.49833 12.5113 9.54818 13.0088 9.75085C13.5062 9.95352 13.9321 10.2998 14.2318 10.7455C14.5316 11.1913 14.6918 11.7162 14.692 12.2534C14.6961 12.6044 14.631 12.9527 14.5004 13.2785C14.3698 13.6044 14.1763 13.9013 13.931 14.1523C13.6856 14.4033 13.3932 14.6035 13.0705 14.7415C12.7477 14.8794 12.4009 14.9525 12.05 14.9564ZM14.986 9.5514C14.92 9.55141 14.8547 9.53826 14.7938 9.51271C14.733 9.48716 14.6778 9.44973 14.6317 9.40261C14.5855 9.35548 14.5491 9.29962 14.5248 9.23828C14.5005 9.17695 14.4886 9.11137 14.49 9.0454C14.49 8.9112 14.5433 8.7825 14.6382 8.6876C14.7331 8.59271 14.8618 8.5394 14.996 8.5394C15.1302 8.5394 15.2589 8.59271 15.3538 8.6876C15.4487 8.7825 15.502 8.9112 15.502 9.0454C15.504 9.11684 15.4905 9.18786 15.4625 9.2536C15.4345 9.31935 15.3926 9.37826 15.3397 9.42632C15.2868 9.47437 15.2241 9.51043 15.156 9.53201C15.0879 9.5536 15.0159 9.56021 14.945 9.5514H14.986Z" fill="white"/>
<path d="M12.05 2.00013C9.39784 1.98686 6.84903 3.02771 4.96429 4.8937C3.07955 6.75969 2.01326 9.29796 2 11.9501C1.98674 14.6023 3.02759 17.1511 4.89358 19.0358C6.75957 20.9206 9.29784 21.9869 11.95 22.0001C13.2632 22.0067 14.5649 21.7545 15.7806 21.2581C16.9964 20.7616 18.1025 20.0305 19.0357 19.1065C19.9689 18.1826 20.7111 17.0839 21.2197 15.8732C21.7283 14.6624 21.9934 13.3633 22 12.0501C22.0066 10.7369 21.7544 9.43525 21.2579 8.21948C20.7614 7.00372 20.0304 5.89764 19.1064 4.96441C18.1825 4.03118 17.0838 3.28908 15.873 2.78046C14.6623 2.27185 13.3632 2.00669 12.05 2.00013ZM18.123 14.7021C18.1258 15.1508 18.0395 15.5955 17.8691 16.0105C17.6988 16.4255 17.4477 16.8026 17.1305 17.1199C16.8133 17.4372 16.4363 17.6884 16.0213 17.8589C15.6063 18.0294 15.1616 18.1158 14.713 18.1131H9.389C8.94044 18.1156 8.49584 18.0292 8.08093 17.8587C7.66601 17.6882 7.28903 17.4372 6.9718 17.12C6.65457 16.8029 6.40339 16.426 6.23281 16.0111C6.06222 15.5963 5.97562 15.1517 5.978 14.7031V9.37812C5.97522 8.92949 6.06151 8.48477 6.23188 8.06973C6.40225 7.6547 6.6533 7.27761 6.97049 6.96033C7.28769 6.64304 7.6647 6.39187 8.07968 6.22138C8.49467 6.05089 8.93937 5.96447 9.388 5.96712H14.713C15.1616 5.96447 15.6062 6.05086 16.0211 6.22129C16.436 6.39172 16.813 6.6428 17.1302 6.95997C17.4473 7.27715 17.6984 7.65412 17.8688 8.06904C18.0393 8.48396 18.1257 8.92858 18.123 9.37712V14.7021Z" fill="white"/>
</svg>
