<svg width="18" height="18" viewBox="0 0 18 18" fill="none" xmlns="http://www.w3.org/2000/svg">
<g clip-path="url(#clip0_804_3630)">
<path d="M9.06441 -0.00634766C5.37469 -0.00634766 2.25 3.13606 2.25 6.85868C2.25 10.7568 5.87166 14.7432 8.30784 17.5451C8.31712 17.5563 8.71089 17.9937 9.19603 17.9937H9.23908C9.72424 17.9937 10.1152 17.5563 10.125 17.5451C12.4113 14.9168 15.75 10.5833 15.75 6.85868C15.75 3.13606 13.3127 -0.00634766 9.06441 -0.00634766ZM9.28997 16.7905C9.27028 16.8102 9.24158 16.8321 9.21626 16.8504C9.19039 16.8327 9.16226 16.8102 9.14147 16.7905L8.84726 16.4521C6.53766 13.8025 3.375 10.1741 3.375 6.85868C3.375 3.74722 5.9805 1.11837 9.06441 1.11837C12.9057 1.11837 14.625 4.00118 14.625 6.85868C14.625 9.37559 12.8298 12.7174 9.28997 16.7905ZM9.01967 3.39987C7.15583 3.39987 5.64467 4.91103 5.64467 6.77487C5.64467 8.63871 7.15583 10.1499 9.01967 10.1499C10.8835 10.1499 12.3947 8.63871 12.3947 6.77487C12.3947 4.91103 10.8835 3.39987 9.01967 3.39987ZM9.01967 9.02487C7.77908 9.02487 6.74378 7.991 6.74378 6.75012C6.74378 5.50953 7.75318 4.50012 8.99378 4.50012C10.2352 4.50012 11.2438 5.50953 11.2438 6.75012C11.2443 7.991 10.2611 9.02487 9.01967 9.02487Z" fill="black"/>
</g>
<defs>
<clipPath id="clip0_804_3630">
<rect width="18" height="18" fill="white"/>
</clipPath>
</defs>
</svg>
