<svg width="38" height="38" viewBox="0 0 38 38" fill="none" xmlns="http://www.w3.org/2000/svg">
<path d="M20.1821 36.4795L31.4765 25.0735H29.0946C28.8033 25.0735 28.5183 25.0387 28.2397 24.969L19.0612 34.2354L9.88748 24.969C9.60884 25.0387 9.32228 25.0735 9.02781 25.0735H6.65066L17.9427 36.4795C18.5601 37.1041 19.5647 37.1041 20.1821 36.4795ZM34.9674 6.81866C36.3887 8.25758 37.364 10.0765 37.7761 12.0566C38.1881 14.0367 38.0193 16.0936 37.2899 17.9801C37.1315 17.9618 36.9721 17.9515 36.8126 17.9492H34.7014C35.4984 16.4253 35.7904 14.6876 35.5351 12.987C35.2798 11.2863 34.4906 9.71085 33.2813 8.48813C32.5533 7.74314 31.6842 7.15049 30.7248 6.7447C29.7654 6.33892 28.7348 6.12812 27.6932 6.12459C26.6515 6.12105 25.6195 6.32485 24.6574 6.72411C23.6952 7.12337 22.8222 7.7101 22.089 8.45013L19.8306 10.737C19.7202 10.8487 19.5887 10.9373 19.4438 10.9978C19.2989 11.0583 19.1434 11.0895 18.9864 11.0895C18.8294 11.0895 18.6739 11.0583 18.529 10.9978C18.3841 10.9373 18.2526 10.8487 18.1422 10.737L15.8624 8.43351C15.1356 7.6893 14.2679 7.09725 13.3099 6.69187C12.3519 6.28648 11.3228 6.07588 10.2825 6.07235C9.24229 6.06881 8.21177 6.27241 7.25103 6.67127C6.2903 7.07013 5.41859 7.65627 4.68673 8.39551C2.1386 10.9698 1.69689 14.8881 3.37586 17.9492H1.19107C1.04858 17.9492 0.906096 17.9571 0.76361 17.973C-0.000902506 16.0845 -0.196687 14.0138 0.200344 12.0156C0.597376 10.0173 1.5699 8.17876 2.99827 6.72605C3.95094 5.76387 5.08545 5.00076 6.33578 4.48113C7.58612 3.9615 8.92732 3.69572 10.2813 3.69925C11.6353 3.70279 12.9751 3.97557 14.2227 4.50173C15.4703 5.02788 16.6009 5.7969 17.5485 6.76404L18.9852 8.21265L20.4006 6.78067L20.6594 6.52894C22.608 4.6949 25.1979 3.69775 27.8733 3.75148C30.5487 3.8052 33.0964 4.9055 34.9698 6.81629M14.1621 11.554C14.0725 11.3379 13.9211 11.1532 13.7269 11.0229C13.5327 10.8926 13.3043 10.8226 13.0704 10.8215C12.8366 10.8205 12.6076 10.8886 12.4123 11.0172C12.217 11.1458 12.064 11.3292 11.9725 11.5445L8.24413 20.324H1.19107C0.876154 20.324 0.574139 20.4491 0.351461 20.6718C0.128783 20.8944 0.00368368 21.1964 0.00368368 21.5114C0.00368368 21.8263 0.128783 22.1283 0.351461 22.351C0.574139 22.5737 0.876154 22.6987 1.19107 22.6987H9.02781C9.26062 22.6988 9.48829 22.6303 9.68251 22.502C9.87674 22.3736 10.0289 22.191 10.1202 21.9768L13.053 15.0734L17.9047 26.7169C17.9883 26.9183 18.1258 27.0928 18.302 27.2213C18.4783 27.3497 18.6865 27.4271 18.9039 27.445C19.1212 27.463 19.3393 27.4206 19.5342 27.3228C19.7291 27.2249 19.8933 27.0752 20.0087 26.8902L25.0979 18.7471L28.2017 22.2927C28.313 22.4201 28.4503 22.5222 28.6043 22.5922C28.7583 22.6623 28.9254 22.6986 29.0946 22.6987H36.8126C37.1275 22.6987 37.4296 22.5737 37.6522 22.351C37.8749 22.1283 38 21.8263 38 21.5114C38 21.1964 37.8749 20.8944 37.6522 20.6718C37.4296 20.4491 37.1275 20.324 36.8126 20.324H29.6337L25.8341 15.9781C25.7119 15.8385 25.5588 15.7293 25.3868 15.6595C25.2149 15.5897 25.029 15.5612 24.8441 15.5762C24.6591 15.5912 24.4803 15.6493 24.3219 15.7459C24.1634 15.8425 24.0299 15.9749 23.9319 16.1325L19.2132 23.6819L14.1621 11.554Z" fill="black"/>
</svg>
