<svg width="34" height="38" viewBox="0 0 34 38" fill="none" xmlns="http://www.w3.org/2000/svg">
<path d="M10.3478 17.5385C8.38753 17.5385 6.50752 16.7685 5.12138 15.3981C3.73524 14.0276 2.95652 12.1689 2.95652 10.2308V4.38462C2.95652 3.99699 3.11227 3.62524 3.38949 3.35115C3.66672 3.07706 4.04272 2.92308 4.43478 2.92308H5.91304C6.3051 2.92308 6.6811 2.76909 6.95833 2.495C7.23556 2.22091 7.3913 1.84916 7.3913 1.46154C7.3913 1.07391 7.23556 0.702166 6.95833 0.428075C6.6811 0.153983 6.3051 0 5.91304 0H4.43478C3.2586 0 2.1306 0.461949 1.29892 1.28422C0.467235 2.1065 0 3.22174 0 4.38462V10.2308C0.00190019 11.8819 0.409141 13.5079 1.18675 14.9692C1.96435 16.4304 3.08908 17.6832 4.46435 18.62C5.78566 19.7717 6.85722 21.1762 7.61435 22.7487C8.37148 24.3212 8.79847 26.0291 8.86956 27.7692C8.86956 30.4826 9.95977 33.0848 11.9004 35.0035C13.841 36.9221 16.473 38 19.2174 38C21.9618 38 24.5938 36.9221 26.5344 35.0035C28.475 33.0848 29.5652 30.4826 29.5652 27.7692V26.1031C30.9587 25.7473 32.1731 24.9014 32.9809 23.7237C33.7886 22.546 34.1342 21.1175 33.9529 19.7059C33.7715 18.2943 33.0757 16.9966 31.9958 16.056C30.9159 15.1154 29.5261 14.5964 28.0869 14.5964C26.6477 14.5964 25.258 15.1154 24.1781 16.056C23.0982 16.9966 22.4024 18.2943 22.221 19.7059C22.0397 21.1175 22.3853 22.546 23.193 23.7237C24.0008 24.9014 25.2152 25.7473 26.6087 26.1031V27.7692C26.6087 29.7074 25.83 31.5661 24.4438 32.9366C23.0577 34.307 21.1777 35.0769 19.2174 35.0769C17.2571 35.0769 15.3771 34.307 13.9909 32.9366C12.6048 31.5661 11.8261 29.7074 11.8261 27.7692C11.9009 26.0269 12.3325 24.3177 13.0948 22.7451C13.8571 21.1725 14.9342 19.7692 16.2609 18.62C17.6307 17.68 18.7496 16.4258 19.522 14.9647C20.2943 13.5037 20.6971 11.8793 20.6956 10.2308V4.38462C20.6956 3.22174 20.2284 2.1065 19.3967 1.28422C18.565 0.461949 17.437 0 16.2609 0H14.7826C14.3905 0 14.0145 0.153983 13.7373 0.428075C13.4601 0.702166 13.3043 1.07391 13.3043 1.46154C13.3043 1.84916 13.4601 2.22091 13.7373 2.495C14.0145 2.76909 14.3905 2.92308 14.7826 2.92308H16.2609C16.6529 2.92308 17.0289 3.07706 17.3062 3.35115C17.5834 3.62524 17.7391 3.99699 17.7391 4.38462V10.2308C17.7391 11.1904 17.5479 12.1407 17.1765 13.0273C16.805 13.9139 16.2606 14.7195 15.5743 15.3981C14.8879 16.0767 14.0731 16.615 13.1763 16.9822C12.2796 17.3494 11.3185 17.5385 10.3478 17.5385ZM28.0869 23.3846C27.3028 23.3846 26.5508 23.0766 25.9964 22.5285C25.4419 21.9803 25.1304 21.2368 25.1304 20.4615C25.1304 19.6863 25.4419 18.9428 25.9964 18.3946C26.5508 17.8464 27.3028 17.5385 28.0869 17.5385C28.8711 17.5385 29.6231 17.8464 30.1775 18.3946C30.732 18.9428 31.0435 19.6863 31.0435 20.4615C31.0435 21.2368 30.732 21.9803 30.1775 22.5285C29.6231 23.0766 28.8711 23.3846 28.0869 23.3846Z" fill="black"/>
</svg>
