<svg width="65" height="65" viewBox="0 0 65 65" fill="none" xmlns="http://www.w3.org/2000/svg">
<rect x="0.5" y="0.5" width="64" height="64" rx="9.5" stroke="#A6DEF7"/>
<path d="M32.4997 5.4165L32.8165 5.43546C33.4211 5.50676 33.984 5.77964 34.4144 6.21008C34.8449 6.64052 35.1178 7.20342 35.1891 7.80796L35.208 8.12484V18.9582L35.2216 19.3644C35.3185 20.6541 35.8736 21.8665 36.7866 22.7824C37.6996 23.6984 38.9102 24.2575 40.1995 24.3586L40.6247 24.3748H51.458L51.7749 24.3938C52.3794 24.4651 52.9423 24.738 53.3728 25.1684C53.8032 25.5989 54.0761 26.1618 54.1474 26.7663L54.1663 27.0832V51.4582C54.1665 53.5306 53.3746 55.5248 51.9529 57.0326C50.5311 58.5405 48.5869 59.448 46.518 59.5696L46.0413 59.5832H18.958C16.8856 59.5833 14.8914 58.7915 13.3836 57.3697C11.8757 55.9479 10.9681 54.0037 10.8465 51.9348L10.833 51.4582V13.5415C10.8329 11.4691 11.6247 9.4749 13.0465 7.96705C14.4682 6.45919 16.4125 5.55163 18.4813 5.43005L18.958 5.4165H32.4997Z" fill="#A6DEF7"/>
<path d="M51.4581 18.9581H40.6248L40.6221 8.12207L51.4581 18.9581Z" fill="#A6DEF7"/>
</svg>
