<svg width="18" height="19" viewBox="0 0 18 19" fill="none" xmlns="http://www.w3.org/2000/svg">
<path d="M8.06818 17.032C8.00959 17.2547 7.96564 17.4803 7.93635 17.7088C7.90705 17.9373 7.88654 18.1717 7.87483 18.4119C7.12484 18.324 6.41001 18.1482 5.73034 17.8846C5.05067 17.6209 4.4208 17.284 3.84074 16.8738C3.26067 16.4637 2.73334 15.9891 2.25874 15.45C1.78414 14.911 1.37985 14.3251 1.04588 13.6923C0.711898 13.0595 0.454091 12.3915 0.272455 11.6884C0.0908183 10.9853 0 10.2558 0 9.49998C0 8.67383 0.105466 7.87697 0.316399 7.10941C0.527332 6.34185 0.829083 5.62409 1.22165 4.95614C1.61422 4.28819 2.08296 3.68175 2.62787 3.13684C3.17278 2.59193 3.78214 2.12319 4.45596 1.73062C5.12977 1.33806 5.8446 1.0363 6.60044 0.825371C7.35628 0.614438 8.15607 0.506042 8.9998 0.500183C9.82595 0.500183 10.6199 0.60565 11.3816 0.816582C12.1433 1.02752 12.861 1.3322 13.5349 1.73062C14.2087 2.12905 14.8151 2.59779 15.3542 3.13684C15.8932 3.67589 16.3649 4.28526 16.7692 4.96493C17.1734 5.6446 17.4752 6.35943 17.6744 7.10941C17.8736 7.8594 17.982 8.65625 17.9996 9.49998H17.3756C17.2936 9.36522 17.2086 9.23339 17.1207 9.10448C17.0328 8.97558 16.9303 8.85254 16.8131 8.73535C16.7779 8.2256 16.6871 7.73049 16.5406 7.25003H5.77429C5.72741 7.62503 5.69226 7.99709 5.66882 8.36622C5.64538 8.73535 5.63073 9.11327 5.62488 9.49998C5.62488 9.88083 5.63659 10.2558 5.66003 10.625C5.68347 10.9941 5.72155 11.3691 5.77429 11.7499H8.9998C8.9998 11.9374 9.01445 12.1249 9.04375 12.3124C9.07304 12.4999 9.11113 12.6874 9.158 12.8749H5.96764C6.03795 13.2089 6.1317 13.5751 6.24889 13.9735C6.36607 14.3719 6.51255 14.7616 6.68833 15.1424C6.86411 15.5233 7.06625 15.8807 7.29476 16.2147C7.52327 16.5487 7.78108 16.8211 8.06818 17.032ZM16.11 6.12506C15.8815 5.65046 15.612 5.20516 15.3014 4.78915C14.9909 4.37314 14.6393 3.99229 14.2468 3.6466C13.8542 3.3009 13.4382 2.99329 12.9987 2.72377C12.5593 2.45424 12.0847 2.23452 11.5749 2.0646C11.7859 2.35756 11.9734 2.6681 12.1374 2.99622C12.3015 3.32434 12.4509 3.66125 12.5857 4.00694C12.7204 4.35264 12.8347 4.70419 12.9284 5.06161C13.0222 5.41902 13.1042 5.7735 13.1745 6.12506H16.11ZM8.9998 1.62516C8.70684 1.62516 8.43731 1.70426 8.19123 1.86246C7.94514 2.02066 7.71663 2.22866 7.50569 2.48647C7.29476 2.74427 7.10726 3.03431 6.94321 3.35657C6.77915 3.67882 6.62974 4.00987 6.49497 4.34971C6.36021 4.68954 6.25181 5.0118 6.16979 5.31648C6.08776 5.62116 6.02037 5.89069 5.96764 6.12506H12.032C11.9851 5.89655 11.9177 5.62702 11.8298 5.31648C11.7419 5.00594 11.6335 4.68368 11.5046 4.34971C11.3757 4.01573 11.2292 3.68761 11.0652 3.36535C10.9011 3.0431 10.7136 2.75013 10.5027 2.48647C10.2918 2.2228 10.0603 2.0148 9.80838 1.86246C9.55643 1.71012 9.2869 1.63102 8.9998 1.62516ZM6.43345 2.05581C5.93542 2.22573 5.46082 2.44252 5.00965 2.70619C4.55849 2.96986 4.13956 3.27747 3.75285 3.62902C3.36614 3.98057 3.01458 4.36436 2.69818 4.78036C2.38178 5.19637 2.11226 5.6446 1.88961 6.12506H4.82509C4.88954 5.8028 4.96864 5.46003 5.06239 5.09676C5.15614 4.73349 5.27332 4.37021 5.41394 4.00694C5.55456 3.64367 5.7069 3.29504 5.87096 2.96107C6.03502 2.62709 6.22252 2.32534 6.43345 2.05581ZM1.12498 9.49998C1.12498 10.2793 1.23337 11.0292 1.45016 11.7499H4.64052C4.59365 11.3749 4.55849 11.0029 4.53506 10.6337C4.51162 10.2646 4.4999 9.88669 4.4999 9.49998C4.4999 9.11913 4.51162 8.74414 4.53506 8.37501C4.55849 8.00588 4.59365 7.63088 4.64052 7.25003H1.45016C1.23337 7.97072 1.12498 8.7207 1.12498 9.49998ZM1.87203 12.8749C2.10054 13.3495 2.37006 13.7948 2.6806 14.2108C2.99114 14.6268 3.3427 15.0106 3.73527 15.3622C4.12784 15.7137 4.5497 16.0184 5.00087 16.2762C5.45203 16.534 5.92663 16.7537 6.42466 16.9354C6.21373 16.6424 6.02623 16.3319 5.86217 16.0037C5.69812 15.6756 5.54871 15.3387 5.41394 14.993C5.27918 14.6473 5.16492 14.2958 5.07118 13.9384C4.97743 13.5809 4.89247 13.2265 4.8163 12.8749H1.87203ZM15.486 14.4657C15.8668 14.659 16.2125 14.8963 16.5231 15.1776C16.8336 15.4588 17.0973 15.7752 17.3141 16.1268C17.5309 16.4783 17.7008 16.8533 17.8238 17.2518C17.9469 17.6502 18.0055 18.0662 17.9996 18.4998H16.8746C16.8746 18.0369 16.7867 17.6004 16.611 17.1902C16.4352 16.7801 16.195 16.4227 15.8903 16.118C15.5856 15.8133 15.2252 15.5702 14.8092 15.3885C14.3932 15.2069 13.9567 15.119 13.4997 15.1249C13.031 15.1249 12.5944 15.2127 12.1902 15.3885C11.7859 15.5643 11.4285 15.8045 11.1179 16.1092C10.8074 16.4139 10.5642 16.7742 10.3884 17.1902C10.2127 17.6062 10.1248 18.0428 10.1248 18.4998H8.9998C8.9998 18.0721 9.05839 17.659 9.17558 17.2606C9.29276 16.8621 9.45975 16.4842 9.67654 16.1268C9.89334 15.7694 10.157 15.453 10.4675 15.1776C10.7781 14.9022 11.1238 14.6649 11.5046 14.4657C11.0652 14.1493 10.7253 13.7538 10.4851 13.2792C10.2449 12.8046 10.1248 12.2948 10.1248 11.7499C10.1248 11.2871 10.2127 10.8505 10.3884 10.4404C10.5642 10.0302 10.8044 9.67283 11.1091 9.36815C11.4138 9.06347 11.7712 8.82031 12.1814 8.63867C12.5915 8.45704 13.031 8.36915 13.4997 8.37501C13.9626 8.37501 14.3991 8.4629 14.8092 8.63867C15.2194 8.81445 15.5768 9.05468 15.8815 9.35936C16.1862 9.66404 16.4293 10.0244 16.611 10.4404C16.7926 10.8564 16.8805 11.2929 16.8746 11.7499C16.8746 12.289 16.7545 12.7958 16.5143 13.2704C16.2741 13.745 15.9313 14.1434 15.486 14.4657ZM13.4997 13.9999C13.8102 13.9999 14.1003 13.9413 14.3698 13.8241C14.6393 13.7069 14.8796 13.5458 15.0905 13.3407C15.3014 13.1356 15.4625 12.8983 15.5739 12.6288C15.6852 12.3593 15.7438 12.0663 15.7497 11.7499C15.7497 11.4394 15.6911 11.1494 15.5739 10.8798C15.4567 10.6103 15.2956 10.3701 15.0905 10.1591C14.8854 9.94822 14.6481 9.78709 14.3786 9.67576C14.1091 9.56444 13.8161 9.50584 13.4997 9.49998C13.1892 9.49998 12.8991 9.55858 12.6296 9.67576C12.3601 9.79295 12.1198 9.95407 11.9089 10.1591C11.698 10.3642 11.5369 10.6015 11.4255 10.871C11.3142 11.1406 11.2556 11.4335 11.2498 11.7499C11.2498 12.0605 11.3083 12.3505 11.4255 12.62C11.5427 12.8896 11.7038 13.1298 11.9089 13.3407C12.114 13.5517 12.3513 13.7128 12.6208 13.8241C12.8903 13.9354 13.1833 13.994 13.4997 13.9999Z" fill="black"/>
</svg>
