<svg width="17" height="18" viewBox="0 0 17 18" fill="none" xmlns="http://www.w3.org/2000/svg">
<path d="M0 2.475C0 2.0175 0.182727 1.57874 0.507982 1.25524C0.833238 0.93174 1.27438 0.75 1.73436 0.75H7.0866C7.54654 0.750098 7.98761 0.931902 8.31279 1.25542L12.7441 5.66194C12.6517 5.73277 12.5642 5.80971 12.4822 5.89222L10.7149 7.65H8.6718C8.21182 7.65 7.77068 7.46826 7.44543 7.14476C7.12017 6.82126 6.93744 6.3825 6.93744 5.925V2.04375H1.73436C1.61937 2.04375 1.50908 2.08919 1.42777 2.17006C1.34645 2.25094 1.30077 2.36063 1.30077 2.475V16.275C1.30077 16.3894 1.34645 16.4991 1.42777 16.5799C1.50908 16.6608 1.61937 16.7063 1.73436 16.7063H12.1405C12.2555 16.7063 12.3658 16.6608 12.4471 16.5799C12.5284 16.4991 12.5741 16.3894 12.5741 16.275V13.8169L13.8749 12.5231V16.275C13.8749 16.7325 13.6922 17.1713 13.3669 17.4948C13.0416 17.8183 12.6005 18 12.1405 18H1.73436C1.27438 18 0.833238 17.8183 0.507982 17.4948C0.182727 17.1713 0 16.7325 0 16.275V2.475ZM8.6718 6.35625H11.6029L8.23821 3.00975V5.925C8.23821 6.03937 8.2839 6.14907 8.36521 6.22994C8.44652 6.31082 8.55681 6.35625 8.6718 6.35625ZM7.97546 11.5933L13.0944 6.50201C13.2775 6.31427 13.4962 6.16461 13.7379 6.06176C13.9797 5.95891 14.2396 5.90491 14.5025 5.90291C14.7654 5.90092 15.0261 5.95096 15.2694 6.05013C15.5127 6.1493 15.7337 6.29562 15.9196 6.48056C16.1055 6.66551 16.2525 6.88538 16.3522 7.12739C16.4518 7.36939 16.502 7.62869 16.4999 7.89019C16.4978 8.15169 16.4435 8.41017 16.34 8.65057C16.2365 8.89097 16.086 9.10849 15.8972 9.29048L10.7791 14.381C10.4802 14.6775 10.1062 14.8882 9.69681 14.9907L8.10987 15.3849C8.01028 15.4104 7.9072 15.4197 7.80462 15.4125H3.25193C3.07943 15.4125 2.91401 15.3443 2.79203 15.223C2.67006 15.1017 2.60154 14.9372 2.60154 14.7656C2.60154 14.5941 2.67006 14.4295 2.79203 14.3082C2.91401 14.1869 3.07943 14.1188 3.25193 14.1188H6.99901L7.36323 12.6698C7.46556 12.2618 7.67715 11.89 7.97546 11.5933Z" fill="black"/>
</svg>
