<svg width="20" height="20" viewBox="0 0 20 20" fill="none" xmlns="http://www.w3.org/2000/svg">
<path d="M9.9987 15.0681L4.98512 10.0559L5.98811 9.0359L9.29037 12.3382V0.0839844H10.707V12.3382L14.0079 9.03732L15.0123 10.0559L9.9987 15.0681ZM2.37137 19.9173C1.71875 19.9173 1.17428 19.6992 0.737948 19.2628C0.301614 18.8265 0.0829757 18.2815 0.0820312 17.628V14.1954H1.4987V17.628C1.4987 17.8462 1.58936 18.0464 1.7707 18.2287C1.95203 18.4109 2.15178 18.5016 2.36995 18.5007H17.6274C17.8447 18.5007 18.0444 18.41 18.2267 18.2287C18.409 18.0473 18.4996 17.8471 18.4987 17.628V14.1954H19.9154V17.628C19.9154 18.2806 19.6972 18.8251 19.2609 19.2614C18.8245 19.6977 18.2796 19.9164 17.626 19.9173H2.37137Z" fill="black"/>
</svg>
