<svg width="9" height="15" viewBox="0 0 9 15" fill="none" xmlns="http://www.w3.org/2000/svg">
<path d="M7.94661 7.09273L1.67698 1.11898C1.57237 1.01926 1.43338 0.963623 1.28886 0.963623C1.14433 0.963623 1.00534 1.01926 0.900732 1.11898L0.893981 1.12573C0.843091 1.17408 0.802569 1.23227 0.774879 1.29677C0.747189 1.36127 0.732909 1.43073 0.732909 1.50092C0.732909 1.57111 0.747189 1.64057 0.774879 1.70507C0.802569 1.76957 0.843091 1.82776 0.893981 1.87611L6.79798 7.50111L0.893981 13.1239C0.843091 13.1722 0.802569 13.2304 0.774879 13.2949C0.747189 13.3594 0.732909 13.4289 0.732909 13.499C0.732909 13.5692 0.747189 13.6387 0.774879 13.7032C0.802569 13.7677 0.843091 13.8259 0.893981 13.8742L0.900732 13.881C1.00534 13.9807 1.14433 14.0363 1.28886 14.0363C1.43338 14.0363 1.57237 13.9807 1.67698 13.881L7.94661 7.90723C8.00174 7.8547 8.04564 7.79151 8.07563 7.72151C8.10563 7.6515 8.12109 7.57614 8.12109 7.49998C8.12109 7.42382 8.10563 7.34846 8.07563 7.27845C8.04564 7.20845 8.00174 7.14526 7.94661 7.09273Z" fill="black"/>
</svg>
