<svg width="18" height="19" viewBox="0 0 18 19" fill="none" xmlns="http://www.w3.org/2000/svg">
<path d="M3.52428 5.53468H1.5104C1.10982 5.53468 0.725643 5.37555 0.442387 5.0923C0.159132 4.80904 0 4.42486 0 4.02428V2.0104C0 1.60982 0.159132 1.22564 0.442387 0.942387C0.725643 0.659132 1.10982 0.5 1.5104 0.5H3.52428C3.92486 0.5 4.30904 0.659132 4.5923 0.942387C4.87555 1.22564 5.03468 1.60982 5.03468 2.0104V4.02428C5.03468 4.42486 4.87555 4.80904 4.5923 5.0923C4.30904 5.37555 3.92486 5.53468 3.52428 5.53468ZM1.5104 1.50694C1.37688 1.50694 1.24882 1.55998 1.1544 1.6544C1.05998 1.74882 1.00694 1.87688 1.00694 2.0104V4.02428C1.00694 4.15781 1.05998 4.28587 1.1544 4.38028C1.24882 4.4747 1.37688 4.52775 1.5104 4.52775H3.52428C3.65781 4.52775 3.78587 4.4747 3.88028 4.38028C3.9747 4.28587 4.02775 4.15781 4.02775 4.02428V2.0104C4.02775 1.87688 3.9747 1.74882 3.88028 1.6544C3.78587 1.55998 3.65781 1.50694 3.52428 1.50694H1.5104ZM3.52428 18.5H1.5104C1.10982 18.5 0.725643 18.3409 0.442387 18.0576C0.159132 17.7744 0 17.3902 0 16.9896V14.9757C0 14.5751 0.159132 14.191 0.442387 13.9077C0.725643 13.6244 1.10982 13.4653 1.5104 13.4653H3.52428C3.92486 13.4653 4.30904 13.6244 4.5923 13.9077C4.87555 14.191 5.03468 14.5751 5.03468 14.9757V16.9896C5.03468 17.3902 4.87555 17.7744 4.5923 18.0576C4.30904 18.3409 3.92486 18.5 3.52428 18.5ZM1.5104 14.4723C1.37688 14.4723 1.24882 14.5253 1.1544 14.6197C1.05998 14.7141 1.00694 14.8422 1.00694 14.9757V16.9896C1.00694 17.1231 1.05998 17.2512 1.1544 17.3456C1.24882 17.44 1.37688 17.4931 1.5104 17.4931H3.52428C3.65781 17.4931 3.78587 17.44 3.88028 17.3456C3.9747 17.2512 4.02775 17.1231 4.02775 16.9896V14.9757C4.02775 14.8422 3.9747 14.7141 3.88028 14.6197C3.78587 14.5253 3.65781 14.4723 3.52428 14.4723H1.5104ZM3.52428 12.0173H1.5104C1.10982 12.0173 0.725643 11.8582 0.442387 11.575C0.159132 11.2917 0 10.9075 0 10.5069V8.49306C0 8.09248 0.159132 7.7083 0.442387 7.42505C0.725643 7.14179 1.10982 6.98266 1.5104 6.98266H3.52428C3.92486 6.98266 4.30904 7.14179 4.5923 7.42505C4.87555 7.7083 5.03468 8.09248 5.03468 8.49306V10.5069C5.03468 10.9075 4.87555 11.2917 4.5923 11.575C4.30904 11.8582 3.92486 12.0173 3.52428 12.0173ZM1.5104 7.98959C1.37688 7.98959 1.24882 8.04264 1.1544 8.13706C1.05998 8.23148 1.00694 8.35953 1.00694 8.49306V10.5069C1.00694 10.6405 1.05998 10.7685 1.1544 10.8629C1.24882 10.9574 1.37688 11.0104 1.5104 11.0104H3.52428C3.65781 11.0104 3.78587 10.9574 3.88028 10.8629C3.9747 10.7685 4.02775 10.6405 4.02775 10.5069V8.49306C4.02775 8.35953 3.9747 8.23148 3.88028 8.13706C3.78587 8.04264 3.65781 7.98959 3.52428 7.98959H1.5104ZM17.4965 3.52081H8.4341C8.30057 3.52081 8.17251 3.46777 8.0781 3.37335C7.98368 3.27893 7.93063 3.15087 7.93063 3.01734C7.93063 2.88381 7.98368 2.75575 8.0781 2.66134C8.17251 2.56692 8.30057 2.51387 8.4341 2.51387H17.4965C17.6301 2.51387 17.7581 2.56692 17.8525 2.66134C17.947 2.75575 18 2.88381 18 3.01734C18 3.15087 17.947 3.27893 17.8525 3.37335C17.7581 3.46777 17.6301 3.52081 17.4965 3.52081ZM17.4965 10.0035H8.4341C8.30057 10.0035 8.17251 9.95042 8.0781 9.85601C7.98368 9.76159 7.93063 9.63353 7.93063 9.5C7.93063 9.36647 7.98368 9.23841 8.0781 9.14399C8.17251 9.04957 8.30057 8.99653 8.4341 8.99653H17.4965C17.6301 8.99653 17.7581 9.04957 17.8525 9.14399C17.947 9.23841 18 9.36647 18 9.5C18 9.63353 17.947 9.76159 17.8525 9.85601C17.7581 9.95042 17.6301 10.0035 17.4965 10.0035ZM17.4965 16.4831H8.4341C8.30057 16.4831 8.17251 16.4301 8.0781 16.3356C7.98368 16.2412 7.93063 16.1132 7.93063 15.9796C7.93063 15.8461 7.98368 15.718 8.0781 15.6236C8.17251 15.5292 8.30057 15.4762 8.4341 15.4762H17.4965C17.6301 15.4762 17.7581 15.5292 17.8525 15.6236C17.947 15.718 18 15.8461 18 15.9796C18 16.1132 17.947 16.2412 17.8525 16.3356C17.7581 16.4301 17.6301 16.4831 17.4965 16.4831Z" fill="black"/>
</svg>
