<svg width="18" height="19" viewBox="0 0 18 19" fill="none" xmlns="http://www.w3.org/2000/svg">
<path d="M18 9.491C18 4.5275 13.968 0.5 9 0.5C4.032 0.5 0 4.5275 0 9.491C0 12.2248 1.242 14.6885 3.186 16.3422C3.204 16.3602 3.222 16.3603 3.222 16.3783C3.384 16.5042 3.546 16.6302 3.726 16.7563C3.816 16.8102 3.888 16.8811 3.978 16.9531C5.46593 17.9603 7.22126 18.499 9.018 18.5C10.8147 18.499 12.5701 17.9603 14.058 16.9531C14.148 16.8991 14.22 16.8283 14.31 16.7731C14.472 16.6483 14.652 16.5222 14.814 16.3962C14.832 16.3783 14.85 16.3782 14.85 16.3602C16.758 14.6874 18 12.2248 18 9.491ZM9 17.3671C7.308 17.3671 5.76 16.8271 4.482 15.9282C4.5 15.7842 4.536 15.6414 4.572 15.4974C4.67961 15.1072 4.8369 14.7325 5.04 14.3825C5.238 14.0405 5.472 13.7345 5.76 13.4645C6.03 13.1945 6.354 12.9436 6.678 12.7456C7.02 12.5476 7.38 12.4036 7.776 12.2956C8.17521 12.1887 8.58672 12.1346 9 12.1348C10.2271 12.1255 11.4092 12.5962 12.294 13.4465C12.708 13.8605 13.032 14.3461 13.266 14.9034C13.392 15.2274 13.482 15.569 13.536 15.9282C12.2076 16.8622 10.6239 17.3646 9 17.3671ZM6.246 9.04212C6.08773 8.67889 6.00798 8.28632 6.012 7.89012C6.012 7.49525 6.084 7.09925 6.246 6.73925C6.408 6.37925 6.624 6.05638 6.894 5.78638C7.164 5.51638 7.488 5.3015 7.848 5.1395C8.208 4.9775 8.604 4.9055 9 4.9055C9.414 4.9055 9.792 4.9775 10.152 5.1395C10.512 5.3015 10.836 5.5175 11.106 5.78638C11.376 6.05638 11.592 6.38037 11.754 6.73925C11.916 7.09925 11.988 7.49525 11.988 7.89012C11.988 8.30412 11.916 8.68213 11.754 9.041C11.5985 9.39617 11.3789 9.71959 11.106 9.995C10.8305 10.2675 10.5071 10.4868 10.152 10.6419C9.40806 10.9469 8.57394 10.9469 7.83 10.6419C7.47492 10.4868 7.15151 10.2675 6.876 9.995C6.6029 9.72348 6.38847 9.3999 6.246 9.04212ZM14.598 15.0114C14.598 14.9754 14.58 14.9574 14.58 14.9214C14.4033 14.3581 14.1423 13.8248 13.806 13.3396C13.4694 12.8509 13.0561 12.4197 12.582 12.0627C12.2198 11.7902 11.8272 11.5607 11.412 11.3787C11.6 11.253 11.7749 11.1086 11.934 10.9479C12.2024 10.6829 12.438 10.3868 12.636 10.0659C13.036 9.4115 13.242 8.65699 13.23 7.89012C13.2359 7.32255 13.1256 6.75977 12.906 6.23637C12.6894 5.73198 12.3778 5.27402 11.988 4.8875C11.5979 4.50618 11.14 4.20096 10.638 3.9875C10.1138 3.76796 9.55025 3.65808 8.982 3.66462C8.41367 3.65843 7.85009 3.7687 7.326 3.98863C6.81845 4.19948 6.35913 4.51144 5.976 4.9055C5.59269 5.29359 5.2872 5.75145 5.076 6.25437C4.85638 6.77777 4.74612 7.34055 4.752 7.90812C4.752 8.30412 4.806 8.68175 4.914 9.041C5.022 9.419 5.166 9.761 5.364 10.0839C5.544 10.4079 5.796 10.6959 6.066 10.9659C6.228 11.1279 6.408 11.2715 6.606 11.3967C6.18896 11.5824 5.79607 11.8181 5.436 12.0988C4.968 12.4588 4.554 12.8896 4.212 13.3576C3.87256 13.841 3.61136 14.3748 3.438 14.9394C3.42 14.9754 3.42 15.0114 3.42 15.0294C1.998 13.5905 1.116 11.6488 1.116 9.491C1.116 5.1575 4.662 1.61487 9 1.61487C13.338 1.61487 16.884 5.1575 16.884 9.491C16.8816 11.561 16.0597 13.5458 14.598 15.0114Z" fill="black"/>
</svg>
