<svg width="18" height="19" viewBox="0 0 18 19" fill="none" xmlns="http://www.w3.org/2000/svg">
<path d="M0.947368 17.1642L4.34842 13.7632H15.1579C15.6604 13.7632 16.1423 13.5635 16.4977 13.2082C16.853 12.8529 17.0526 12.3709 17.0526 11.8684V3.34211C17.0526 2.83959 16.853 2.35766 16.4977 2.00232C16.1423 1.64699 15.6604 1.44737 15.1579 1.44737H2.84211C2.33959 1.44737 1.85766 1.64699 1.50232 2.00232C1.14699 2.35766 0.947368 2.83959 0.947368 3.34211V17.1642ZM0.947368 18.5H0V3.34211C0 2.58833 0.299435 1.86543 0.832433 1.33243C1.36543 0.799435 2.08833 0.5 2.84211 0.5H15.1579C15.9117 0.5 16.6346 0.799435 17.1676 1.33243C17.7006 1.86543 18 2.58833 18 3.34211V11.8684C18 12.6222 17.7006 13.3451 17.1676 13.8781C16.6346 14.4111 15.9117 14.7105 15.1579 14.7105H4.73684L0.947368 18.5ZM3.78947 4.28947H14.2105V5.23684H3.78947V4.28947ZM3.78947 7.13158H14.2105V8.07895H3.78947V7.13158ZM3.78947 9.97368H11.3684V10.9211H3.78947V9.97368Z" fill="black"/>
</svg>
