<svg width="41" height="47" viewBox="0 0 41 47" fill="none" xmlns="http://www.w3.org/2000/svg">
<path d="M37.4164 3.32954C35.6069 1.60529 33.1814 0.64279 30.6816 0.652415C28.1007 0.66204 25.6739 1.67129 23.8479 3.49729L20.3664 6.98017L16.9715 3.58392C13.1889 -0.197335 7.03025 -0.315585 3.21188 3.42992C-0.644998 7.21116 -0.666998 13.4262 3.14313 17.2363L21.5833 35.675C23.687 37.7802 23.786 41.2067 21.7221 43.3503C19.6115 45.5448 16.1053 45.5709 13.9616 43.4273L9.39388 38.8595C9.20138 38.667 9.18213 38.3618 9.34713 38.1445C10.0223 37.2577 10.3963 36.1302 10.3124 34.916C10.1474 32.518 8.18663 30.5889 5.78588 30.4638C3.00563 30.3194 0.701128 32.5579 0.738253 35.3148C0.771253 37.8695 2.853 39.9774 5.40638 40.042C6.23 40.0627 7.00825 39.8743 7.693 39.5264C7.90063 39.4205 8.15225 39.4659 8.31725 39.6295L13.0363 44.3499C14.3508 45.6644 16.0764 46.3203 17.802 46.3203C19.5276 46.3203 21.2546 45.663 22.5691 44.3499C25.1968 41.7223 25.1968 37.4447 22.5691 34.817L4.06713 16.3137C0.789127 13.0343 0.789127 7.70066 4.06713 4.42129C7.3465 1.14192 12.6815 1.14192 15.9595 4.42129L19.8879 8.34829C20.0185 8.48029 20.1931 8.54216 20.3664 8.53804C20.5396 8.54216 20.7129 8.48029 20.8449 8.34829L24.6935 4.49967C26.2899 2.90329 28.4445 1.96279 30.7023 1.95867C32.9545 1.95454 35.0734 2.82904 36.6656 4.42129C38.2565 6.01354 39.131 8.12966 39.1283 10.3805C39.1255 12.6383 38.1836 14.7957 36.5872 16.3934L35.3429 17.6364C35.2411 17.7395 35.1022 17.7973 34.9565 17.7973H31.2481C31.0433 17.7973 30.8535 17.6804 30.7614 17.4962L28.9711 13.9143C28.7704 13.5128 28.1984 13.5128 27.9976 13.9143L24.919 20.066C24.7196 20.4675 24.1463 20.4675 23.9469 20.066L22.895 17.9623C22.6943 17.5608 22.1223 17.5608 21.9229 17.9623L20.871 20.0647C20.6703 20.4662 20.0983 20.4662 19.8975 20.0647L16.8216 13.9115C16.6209 13.51 16.0489 13.51 15.8495 13.9115L14.0579 17.4948C13.9658 17.6777 13.7774 17.7945 13.5711 17.7945H10.289C9.9315 17.7945 9.61938 18.0695 9.60838 18.4284C9.59738 18.7983 9.89438 19.1008 10.2615 19.1008H14.3783C14.5845 19.1008 14.7743 18.9839 14.865 18.7997L15.8495 16.832C16.0489 16.4305 16.6209 16.4305 16.8216 16.832L19.8975 22.9852C20.0983 23.3867 20.6703 23.3867 20.871 22.9852L21.9229 20.8814C22.1223 20.4799 22.6943 20.4799 22.895 20.8814L23.9469 22.9852C24.1463 23.3867 24.7196 23.3867 24.919 22.9852L27.9963 16.8334C28.1956 16.4319 28.769 16.4305 28.9684 16.8334L29.9529 18.801C30.0464 18.9853 30.2348 19.1022 30.4396 19.1022H35.4515C35.4515 19.1022 35.4515 19.1022 35.4529 19.1022C35.4941 19.1022 35.5326 19.0967 35.5711 19.0912C35.5725 19.0912 35.5766 19.0898 35.578 19.0898C35.6165 19.0815 35.655 19.0705 35.6908 19.0568C35.6935 19.0554 35.6976 19.0554 35.7004 19.054C35.7361 19.0389 35.7705 19.0197 35.8035 18.999C35.8076 18.9977 35.8104 18.9963 35.8131 18.9935C35.8489 18.9702 35.8805 18.944 35.9121 18.9152C35.9121 18.9138 35.9121 18.9138 35.9135 18.9124L37.4934 17.3325C39.3634 15.4625 40.4551 12.9298 40.4345 10.2857C40.4125 7.64154 39.34 5.16379 37.4164 3.32954ZM2.04313 35.2502C2.04313 33.3265 3.60788 31.7632 5.53013 31.7632C7.45238 31.7632 9.01713 33.3279 9.01713 35.2502C9.01713 37.1724 7.45238 38.7372 5.53013 38.7372C3.60788 38.7372 2.04313 37.1724 2.04313 35.2502Z" fill="#3E36B0"/>
</svg>
