<svg width="38" height="30" viewBox="0 0 38 30" fill="none" xmlns="http://www.w3.org/2000/svg">
<path d="M5.5409 8.68292C5.54122 7.18586 5.92995 5.71429 6.66939 4.41103C7.40883 3.10777 8.47386 2.01708 9.76112 1.24479C11.0484 0.472503 12.5142 0.0448534 14.0162 0.00334027C15.5183 -0.0381728 17.0056 0.30786 18.3339 1.00786C19.6621 1.70786 20.7862 2.73805 21.597 3.99847C22.4078 5.25888 22.8779 6.70672 22.9615 8.20146C23.0451 9.69621 22.7395 11.1871 22.0742 12.5295C21.409 13.8719 20.4068 15.0201 19.1648 15.8628C21.8394 16.8402 24.1592 18.5925 25.8257 20.8945C27.4922 23.1964 28.4291 25.9425 28.5159 28.7794C28.5122 29.0853 28.39 29.3779 28.1748 29.5961C27.9597 29.8143 27.6682 29.9413 27.3614 29.9505C27.0545 29.9597 26.7559 29.8503 26.528 29.6453C26.3001 29.4403 26.1606 29.1556 26.1385 28.8505C26.0441 25.7736 24.751 22.8543 22.5331 20.7111C20.3152 18.568 17.3469 17.3694 14.2572 17.3694C11.1674 17.3694 8.19912 18.568 5.98124 20.7111C3.76336 22.8543 2.47021 25.7736 2.37582 28.8505C2.35996 29.1597 2.22316 29.4504 1.99475 29.6604C1.76633 29.8704 1.46446 29.9828 1.15381 29.9738C0.84316 29.9647 0.548434 29.8347 0.332774 29.6118C0.117113 29.3888 -0.00232968 29.0906 3.44367e-05 28.781C0.0864938 25.9438 1.02327 23.1973 2.68977 20.8951C4.35628 18.5929 6.67625 16.8403 9.35104 15.8628C8.17674 15.066 7.21573 13.9953 6.55166 12.7439C5.8876 11.4926 5.54061 10.0984 5.5409 8.68292ZM14.2579 2.36675C12.5766 2.36675 10.964 3.03221 9.77512 4.21672C8.58621 5.40123 7.91828 7.00777 7.91828 8.68292C7.91828 10.3581 8.58621 11.9646 9.77512 13.1491C10.964 14.3336 12.5766 14.9991 14.2579 14.9991C15.9393 14.9991 17.5518 14.3336 18.7408 13.1491C19.9297 11.9646 20.5976 10.3581 20.5976 8.68292C20.5976 7.00777 19.9297 5.40123 18.7408 4.21672C17.5518 3.03221 15.9393 2.36675 14.2579 2.36675ZM27.3969 8.68292C27.1634 8.68292 26.9341 8.69871 26.7091 8.7303C26.5519 8.75833 26.3907 8.75454 26.2351 8.71916C26.0795 8.68378 25.9326 8.61753 25.8032 8.52437C25.6738 8.4312 25.5646 8.31303 25.4821 8.1769C25.3995 8.04078 25.3454 7.88948 25.3228 7.73204C25.3002 7.5746 25.3097 7.41424 25.3507 7.26053C25.3917 7.10682 25.4633 6.96291 25.5613 6.83738C25.6593 6.71185 25.7817 6.60728 25.9212 6.5299C26.0606 6.45252 26.2143 6.40392 26.373 6.387C27.9494 6.15994 29.5567 6.46152 30.9422 7.2443C32.3276 8.02707 33.4124 9.24659 34.026 10.7109C34.6395 12.1753 34.7469 13.8013 34.3313 15.3331C33.9157 16.8649 33.0006 18.2156 31.7301 19.1725C33.5977 20.0057 35.1835 21.3595 36.296 23.0706C37.4086 24.7817 38.0004 26.777 38 28.8157C38 29.1298 37.8748 29.431 37.6518 29.6531C37.4289 29.8752 37.1266 30 36.8113 30C36.4961 30 36.1937 29.8752 35.9708 29.6531C35.7479 29.431 35.6226 29.1298 35.6226 28.8157C35.6232 27.0536 35.0536 25.3381 33.9985 23.9239C32.9433 22.5097 31.4586 21.472 29.7648 20.9647L28.9184 20.7121V18.0656L29.5682 17.7356C30.5315 17.2495 31.3022 16.4541 31.7559 15.4779C32.2096 14.5017 32.3199 13.4017 32.069 12.3554C31.818 11.3091 31.2204 10.3776 30.3727 9.71124C29.525 9.0449 28.4767 8.68264 27.3969 8.68292Z" fill="black"/>
</svg>
