<svg width="20" height="20" viewBox="0 0 20 20" fill="none" xmlns="http://www.w3.org/2000/svg">
<path d="M10 14.8004C10.272 14.8004 10.5002 14.7082 10.6845 14.5239C10.8688 14.3396 10.9607 14.1117 10.96 13.8404C10.9594 13.569 10.8672 13.3412 10.6835 13.1569C10.4999 12.9725 10.272 12.8804 10 12.8804C9.72802 12.8804 9.50018 12.9725 9.3165 13.1569C9.13282 13.3412 9.04066 13.569 9.04002 13.8404C9.03938 14.1117 9.13154 14.3399 9.3165 14.5249C9.50146 14.7098 9.7293 14.8017 10 14.8004ZM9.04002 10.9604H10.96V5.20039H9.04002V10.9604ZM10 19.6004C8.67202 19.6004 7.42402 19.3482 6.25602 18.8439C5.08802 18.3396 4.07202 17.6557 3.20802 16.7924C2.34402 15.929 1.66018 14.913 1.15651 13.7444C0.652826 12.5757 0.400666 11.3277 0.400026 10.0004C0.399386 8.67303 0.651546 7.42503 1.15651 6.25639C1.66146 5.08775 2.3453 4.07175 3.20802 3.20839C4.07074 2.34503 5.08674 1.66119 6.25602 1.15687C7.4253 0.652551 8.6733 0.400391 10 0.400391C11.3267 0.400391 12.5747 0.652551 13.744 1.15687C14.9133 1.66119 15.9293 2.34503 16.792 3.20839C17.6547 4.07175 18.3389 5.08775 18.8445 6.25639C19.3501 7.42503 19.6019 8.67303 19.6 10.0004C19.5981 11.3277 19.3459 12.5757 18.8435 13.7444C18.3411 14.913 17.6573 15.929 16.792 16.7924C15.9267 17.6557 14.9107 18.3399 13.744 18.8449C12.5773 19.3498 11.3293 19.6017 10 19.6004Z" fill="#5054BC"/>
</svg>
