<svg width="59" height="56" viewBox="0 0 59 56" fill="none" xmlns="http://www.w3.org/2000/svg">
<path d="M29.5 42.308L14.5856 28.156L17.5694 25.276L27.3929 34.6V0H31.6071V34.6L41.4264 25.28L44.4144 28.156L29.5 42.308ZM6.81029 56C4.86891 56 3.24921 55.384 1.95121 54.152C0.653214 52.92 0.00280952 51.3813 0 49.536V39.844H4.21429V49.536C4.21429 50.152 4.484 50.7173 5.02343 51.232C5.56286 51.7467 6.15707 52.0027 6.80607 52H52.1939C52.8401 52 53.4343 51.744 53.9766 51.232C54.5188 50.72 54.7885 50.1547 54.7857 49.536V39.844H59V49.536C59 51.3787 58.351 52.916 57.053 54.148C55.755 55.38 54.1339 55.9973 52.1897 56H6.81029Z" fill="black"/>
</svg>
