<svg width="17" height="21" viewBox="0 0 17 21" fill="none" xmlns="http://www.w3.org/2000/svg">
<path d="M11.3916 16.0385V16.7308C11.3916 17.4652 11.0998 18.1696 10.5805 18.6889C10.0612 19.2082 9.35681 19.5 8.62236 19.5C7.88791 19.5 7.18355 19.2082 6.66422 18.6889C6.14489 18.1696 5.85313 17.4652 5.85313 16.7308V16.0385M16.0508 14.6292C14.9397 13.2692 14.1552 12.5769 14.1552 8.82764C14.1552 5.39423 12.4019 4.17101 10.9589 3.57692C10.7672 3.49817 10.5868 3.31731 10.5284 3.12043C10.2752 2.25894 9.56563 1.5 8.62236 1.5C7.67909 1.5 6.96904 2.25938 6.71851 3.1213C6.6601 3.32034 6.47967 3.49817 6.28798 3.57692C4.84322 4.17188 3.09169 5.39077 3.09169 8.82764C3.08952 12.5769 2.30505 13.2692 1.1939 14.6292C0.733513 15.1925 1.13678 16.0385 1.94202 16.0385H15.307C16.1079 16.0385 16.5086 15.19 16.0508 14.6292Z" stroke="black" stroke-width="1.5" stroke-linecap="round" stroke-linejoin="round"/>
</svg>
