<svg width="17" height="18" viewBox="0 0 17 18" fill="none" xmlns="http://www.w3.org/2000/svg">
<path d="M4.9016 8.30769C3.97304 8.30769 3.08251 7.943 2.42592 7.29383C1.76933 6.64467 1.40046 5.76421 1.40046 4.84615V2.07692C1.40046 1.89331 1.47423 1.71722 1.60555 1.58739C1.73687 1.45755 1.91497 1.38462 2.10069 1.38462H2.80091C2.98663 1.38462 3.16473 1.31168 3.29605 1.18184C3.42737 1.05201 3.50114 0.875919 3.50114 0.692308C3.50114 0.508696 3.42737 0.332605 3.29605 0.202772C3.16473 0.0729393 2.98663 0 2.80091 0H2.10069C1.54355 0 1.00923 0.218818 0.615277 0.608317C0.221322 0.997815 0 1.52609 0 2.07692V4.84615C0.000900088 5.62828 0.193804 6.3985 0.562143 7.09067C0.930483 7.78284 1.46325 8.37627 2.11469 8.82C2.74057 9.36556 3.24816 10.0308 3.6068 10.7757C3.96544 11.5206 4.1677 12.3296 4.20137 13.1538C4.20137 14.4391 4.71779 15.6718 5.63702 16.5806C6.55624 17.4894 7.80299 18 9.10297 18C10.403 18 11.6497 17.4894 12.5689 16.5806C13.4882 15.6718 14.0046 14.4391 14.0046 13.1538V12.3646C14.6646 12.1961 15.2399 11.7954 15.6225 11.2375C16.0051 10.6797 16.1688 10.003 16.0829 9.33438C15.997 8.66574 15.6674 8.05103 15.1559 7.60547C14.6444 7.15991 13.9861 6.91409 13.3043 6.91409C12.6226 6.91409 11.9643 7.15991 11.4528 7.60547C10.9413 8.05103 10.6117 8.66574 10.5258 9.33438C10.4399 10.003 10.6035 10.6797 10.9862 11.2375C11.3688 11.7954 11.944 12.1961 12.6041 12.3646V13.1538C12.6041 14.0719 12.2352 14.9524 11.5787 15.6015C10.9221 16.2507 10.0315 16.6154 9.10297 16.6154C8.17441 16.6154 7.28388 16.2507 6.62729 15.6015C5.9707 14.9524 5.60183 14.0719 5.60183 13.1538C5.63727 12.3285 5.84172 11.5189 6.2028 10.774C6.56387 10.0291 7.07407 9.36434 7.70251 8.82C8.35137 8.37473 8.88141 7.78063 9.24726 7.08855C9.61311 6.39648 9.80387 5.62705 9.8032 4.84615V2.07692C9.8032 1.52609 9.58188 0.997815 9.18792 0.608317C8.79397 0.218818 8.25965 0 7.70251 0H7.00229C6.81657 0 6.63847 0.0729393 6.50715 0.202772C6.37583 0.332605 6.30206 0.508696 6.30206 0.692308C6.30206 0.875919 6.37583 1.05201 6.50715 1.18184C6.63847 1.31168 6.81657 1.38462 7.00229 1.38462H7.70251C7.88823 1.38462 8.06633 1.45755 8.19765 1.58739C8.32897 1.71722 8.40274 1.89331 8.40274 2.07692V4.84615C8.40274 5.30073 8.31218 5.75085 8.13623 6.17083C7.96028 6.5908 7.70239 6.9724 7.37728 7.29383C7.05217 7.61526 6.66621 7.87024 6.24143 8.0442C5.81665 8.21816 5.36138 8.30769 4.9016 8.30769ZM13.3043 11.0769C12.9329 11.0769 12.5767 10.931 12.3141 10.6714C12.0514 10.4117 11.9039 10.0595 11.9039 9.69231C11.9039 9.32508 12.0514 8.9729 12.3141 8.71324C12.5767 8.45357 12.9329 8.30769 13.3043 8.30769C13.6758 8.30769 14.032 8.45357 14.2946 8.71324C14.5573 8.9729 14.7048 9.32508 14.7048 9.69231C14.7048 10.0595 14.5573 10.4117 14.2946 10.6714C14.032 10.931 13.6758 11.0769 13.3043 11.0769Z" fill="black"/>
</svg>
