<svg width="32" height="31" viewBox="0 0 32 31" fill="none" xmlns="http://www.w3.org/2000/svg">
<path d="M1.83849 28.6995L7.69586 22.8421H26.3122C27.1776 22.8421 28.0076 22.4983 28.6196 21.8863C29.2315 21.2744 29.5753 20.4444 29.5753 19.5789V4.89474C29.5753 4.02929 29.2315 3.1993 28.6196 2.58734C28.0076 1.97537 27.1776 1.63158 26.3122 1.63158H5.10165C4.2362 1.63158 3.40621 1.97537 2.79424 2.58734C2.18228 3.1993 1.83849 4.02929 1.83849 4.89474V28.6995ZM1.83849 31H0.206909V4.89474C0.206909 3.59657 0.722603 2.35158 1.64054 1.43364C2.55849 0.515694 3.80348 0 5.10165 0H26.3122C27.6103 0 28.8553 0.515694 29.7733 1.43364C30.6912 2.35158 31.2069 3.59657 31.2069 4.89474V19.5789C31.2069 20.8771 30.6912 22.1221 29.7733 23.04C28.8553 23.958 27.6103 24.4737 26.3122 24.4737H8.3648L1.83849 31Z" fill="black"/>
</svg>
