<svg width="18" height="19" viewBox="0 0 18 19" fill="none" xmlns="http://www.w3.org/2000/svg">
<path d="M4.42443 1.499C4.42452 1.38631 4.38788 1.27689 4.32047 1.18849C4.25306 1.10009 4.15883 1.03789 4.05304 1.01197C3.94675 0.987666 3.83568 1.00059 3.73723 1.04873C3.63878 1.09687 3.55851 1.1775 3.50899 1.27799C3.41953 1.44332 3.31727 1.60085 3.2032 1.74901C2.95325 2.08089 2.63872 2.35451 2.28005 2.55206C2.22141 2.58015 2.16881 2.62015 2.12537 2.66971C2.08193 2.71927 2.04853 2.77737 2.02716 2.84057C2.00579 2.90376 1.99688 2.97076 2.00096 3.03759C2.00504 3.10442 2.02203 3.16973 2.05092 3.22962C2.07981 3.28952 2.12 3.34279 2.16913 3.38627C2.21825 3.42975 2.2753 3.46257 2.33688 3.48276C2.39847 3.50295 2.46334 3.51011 2.52765 3.50382C2.59196 3.49752 2.65439 3.4779 2.71124 3.44612C3.00063 3.29611 3.24951 3.1101 3.4598 2.91709V5.49924C3.4598 5.63186 3.51061 5.75904 3.60106 5.85282C3.69151 5.94659 3.81419 5.99927 3.94211 5.99927C4.07003 5.99927 4.19271 5.94659 4.28316 5.85282C4.37361 5.75904 4.42443 5.63186 4.42443 5.49924V1.499ZM2.15369 7.64537C2.06536 7.73928 2.01617 7.8654 2.0167 7.99655C2.01723 8.12771 2.06744 8.2534 2.15651 8.34653C2.24559 8.43967 2.3664 8.49279 2.4929 8.49445C2.6194 8.49611 2.74146 8.44618 2.83279 8.35541L2.83954 8.35041L2.88102 8.31441C3.13306 8.11162 3.44269 8.00087 3.76173 7.99939C3.9807 8.00339 4.15722 8.0644 4.26719 8.1484C4.3598 8.21841 4.42443 8.31841 4.42443 8.49942C4.42443 8.70144 4.3569 8.81944 4.22185 8.93545C4.07523 9.06146 3.8852 9.15946 3.62475 9.29247L3.48488 9.36448C3.18295 9.52149 2.80771 9.7285 2.51542 10.0615C2.20481 10.4155 2.01285 10.8806 2.01285 11.4996C2.01285 11.6322 2.06366 11.7594 2.15412 11.8532C2.24457 11.947 2.36725 11.9996 2.49516 11.9996H4.90674C5.03466 11.9996 5.15734 11.947 5.24779 11.8532C5.33824 11.7594 5.38906 11.6322 5.38906 11.4996C5.38906 11.367 5.33824 11.2398 5.24779 11.146C5.15734 11.0523 5.03466 10.9996 4.90674 10.9996H3.0643C3.10512 10.9028 3.16047 10.8134 3.22828 10.7346C3.38841 10.5515 3.61607 10.4145 3.91703 10.2595L4.03279 10.1995C4.28648 10.0715 4.5971 9.91351 4.83825 9.7035C5.15562 9.43048 5.38906 9.04746 5.38906 8.49942C5.38906 7.99539 5.17395 7.59937 4.84115 7.34435C4.52668 7.10234 4.13504 7.00533 3.77427 6.99933H3.76558C3.17685 7.00092 2.60902 7.22573 2.16912 7.63137L2.15947 7.63937L2.15658 7.64337L2.15561 7.64437L2.15369 7.64537ZM2.16912 7.63137L2.15369 7.64537C2.15369 7.64537 2.25111 7.55537 2.16912 7.63137ZM3.70095 14.9998C3.57304 14.9998 3.45036 15.0525 3.35991 15.1463C3.26945 15.24 3.21864 15.3672 3.21864 15.4998C3.21864 15.6325 3.26945 15.7596 3.35991 15.8534C3.45036 15.9472 3.57304 15.9999 3.70095 15.9999C4.03182 15.9999 4.21414 16.0969 4.30674 16.1829C4.34798 16.2195 4.38062 16.2653 4.40218 16.317C4.42374 16.3686 4.43366 16.4247 4.43118 16.4809C4.42346 16.6749 4.25176 16.9999 3.70095 16.9999C3.30353 16.9999 3.09709 16.8979 3.00353 16.8339C2.97181 16.813 2.94321 16.7874 2.91864 16.7579L2.91478 16.7529C2.85222 16.6407 2.75005 16.558 2.62982 16.5223C2.50959 16.4867 2.3807 16.5008 2.27033 16.5618C2.15997 16.6228 2.07676 16.7258 2.03827 16.8491C1.99977 16.9725 2.00898 17.1065 2.06397 17.223V17.225L2.06494 17.226L2.06687 17.23L2.06976 17.236L2.07941 17.252L2.1016 17.292C2.12024 17.3226 2.14565 17.358 2.1778 17.398C2.24243 17.478 2.33697 17.575 2.46912 17.666C2.73729 17.852 3.13472 18 3.70095 18C4.69452 18 5.36591 17.325 5.39485 16.5189C5.40219 16.3308 5.37206 16.1431 5.30634 15.9676C5.24062 15.7921 5.14071 15.6325 5.01285 15.4988C5.28102 15.2168 5.40835 14.8488 5.39485 14.4808C5.36591 13.6747 4.69356 12.9997 3.70095 12.9997C3.13472 12.9997 2.73729 13.1477 2.46912 13.3337C2.32495 13.4329 2.20051 13.5599 2.10256 13.7077L2.07844 13.7477L2.06976 13.7637L2.06687 13.7697L2.06494 13.7727V13.7747L2.06397 13.7757C2.00898 13.8922 1.99977 14.0262 2.03827 14.1496C2.07676 14.2729 2.15997 14.3759 2.27033 14.4369C2.3807 14.4979 2.50959 14.512 2.62982 14.4764C2.75005 14.4407 2.85222 14.358 2.91478 14.2458L2.91864 14.2418C2.94321 14.2123 2.97181 14.1867 3.00353 14.1658C3.09709 14.1018 3.30256 13.9998 3.70095 13.9998C4.25079 13.9998 4.42443 14.3248 4.43118 14.5188C4.43354 14.5751 4.42348 14.6312 4.40174 14.6828C4.38001 14.7345 4.34719 14.7803 4.30578 14.8168C4.21414 14.9028 4.03182 14.9998 3.70095 14.9998ZM2.91478 14.2458L2.91285 14.2498V14.2488L2.91767 14.2408L2.92153 14.2328L2.92443 14.2288L2.92539 14.2258L2.92636 14.2238L2.91478 14.2458ZM7.80064 3.99915C7.67272 3.99915 7.55004 4.05183 7.45959 4.14561C7.36914 4.23938 7.31832 4.36656 7.31832 4.49918C7.31832 4.6318 7.36914 4.75898 7.45959 4.85276C7.55004 4.94653 7.67272 4.99921 7.80064 4.99921H15.5177C15.6456 4.99921 15.7683 4.94653 15.8587 4.85276C15.9492 4.75898 16 4.6318 16 4.49918C16 4.36656 15.9492 4.23938 15.8587 4.14561C15.7683 4.05183 15.6456 3.99915 15.5177 3.99915H7.80064ZM7.80064 8.99945C7.67272 8.99945 7.55004 9.05213 7.45959 9.14591C7.36914 9.23968 7.31832 9.36687 7.31832 9.49948C7.31832 9.6321 7.36914 9.75928 7.45959 9.85306C7.55004 9.94683 7.67272 9.99951 7.80064 9.99951H15.5177C15.6456 9.99951 15.7683 9.94683 15.8587 9.85306C15.9492 9.75928 16 9.6321 16 9.49948C16 9.36687 15.9492 9.23968 15.8587 9.14591C15.7683 9.05213 15.6456 8.99945 15.5177 8.99945H7.80064ZM7.31832 14.4998C7.31832 14.3672 7.36914 14.24 7.45959 14.1462C7.55004 14.0524 7.67272 13.9998 7.80064 13.9998H15.5177C15.6456 13.9998 15.7683 14.0524 15.8587 14.1462C15.9492 14.24 16 14.3672 16 14.4998C16 14.6324 15.9492 14.7596 15.8587 14.8534C15.7683 14.9471 15.6456 14.9998 15.5177 14.9998H7.80064C7.67272 14.9998 7.55004 14.9471 7.45959 14.8534C7.36914 14.7596 7.31832 14.6324 7.31832 14.4998Z" fill="black"/>
</svg>
