<svg width="18" height="17" viewBox="0 0 18 17" fill="none" xmlns="http://www.w3.org/2000/svg">
<path fill-rule="evenodd" clip-rule="evenodd" d="M4.99161 3.62511C4.24523 4.3605 3.67469 5.25505 3.32261 6.24192C2.97053 7.22879 2.84602 8.28247 2.95837 9.32422C2.96883 9.46416 2.9244 9.60266 2.83448 9.7104C2.74457 9.81813 2.61625 9.88662 2.4767 9.90137C2.33715 9.91611 2.19735 9.87594 2.08691 9.78937C1.97647 9.7028 1.90408 9.57663 1.88507 9.4376C1.75547 8.23439 1.89938 7.01744 2.30605 5.87765C2.71272 4.73785 3.37164 3.70466 4.2336 2.85523C7.40493 -0.272914 12.521 -0.222164 15.6599 2.96105C18.7988 6.14317 18.7783 11.2592 15.6059 14.3873C14.1375 15.838 12.1661 16.6665 10.1022 16.7002C9.32194 16.7141 8.5437 16.6156 7.7915 16.4076C7.65346 16.3695 7.53621 16.2782 7.46554 16.1536C7.39487 16.0291 7.37656 15.8816 7.41465 15.7436C7.45274 15.6055 7.5441 15.4883 7.66864 15.4176C7.79317 15.3469 7.94069 15.3286 8.07872 15.3667C8.73109 15.5471 9.40605 15.6326 10.0828 15.6205C11.8698 15.5919 13.5767 14.8748 14.8479 13.6185C17.5916 10.9126 17.6143 6.48115 14.8911 3.71906C12.1679 0.956963 7.73535 0.91917 4.99161 3.62511Z" fill="black"/>
<path fill-rule="evenodd" clip-rule="evenodd" d="M2.82148 10.0092C2.77426 10.0621 2.71709 10.1052 2.65322 10.136C2.58936 10.1668 2.52005 10.1847 2.44926 10.1887C2.37847 10.1927 2.30759 10.1828 2.24065 10.1594C2.17372 10.136 2.11204 10.0997 2.05915 10.0524L0.20192 8.40037C0.144827 8.35454 0.0976523 8.29757 0.0632638 8.23294C0.0288753 8.1683 0.00799169 8.09735 0.00188279 8.0244C-0.00422611 7.95144 0.0045673 7.878 0.0277285 7.80855C0.0508896 7.7391 0.0879346 7.67508 0.136611 7.62039C0.185287 7.5657 0.244577 7.52149 0.310876 7.49043C0.377176 7.45938 0.449099 7.44213 0.522272 7.43974C0.595446 7.43735 0.668341 7.44987 0.736525 7.47653C0.804709 7.5032 0.866758 7.54345 0.918898 7.59485L2.77613 9.24692C2.82918 9.29399 2.87243 9.35105 2.90342 9.41484C2.9344 9.47863 2.95252 9.5479 2.95673 9.61869C2.96095 9.68948 2.95117 9.76041 2.92796 9.82742C2.90475 9.89444 2.86857 9.95622 2.82148 10.0092Z" fill="black"/>
<path fill-rule="evenodd" clip-rule="evenodd" d="M1.98591 9.94274C2.02845 9.99946 2.08175 10.0472 2.14275 10.0834C2.20376 10.1195 2.27129 10.1432 2.34147 10.1533C2.41166 10.1633 2.48313 10.1594 2.55182 10.1418C2.6205 10.1242 2.68504 10.0933 2.74176 10.0507L4.90133 8.43104C5.01588 8.34512 5.09161 8.21723 5.11186 8.07548C5.13211 7.93373 5.09522 7.78974 5.00931 7.67519C4.9234 7.56064 4.7955 7.48491 4.65375 7.46466C4.512 7.44441 4.36801 7.4813 4.25346 7.56721L2.09389 9.18689C1.97934 9.2728 1.90361 9.4007 1.88336 9.54245C1.86311 9.6842 1.9 9.82819 1.98591 9.94274ZM9.73877 4.75977C9.88196 4.75977 10.0193 4.81665 10.1205 4.9179C10.2218 5.01915 10.2787 5.15647 10.2787 5.29966V9.07891C10.2787 9.2221 10.2218 9.35942 10.1205 9.46067C10.0193 9.56192 9.88196 9.6188 9.73877 9.6188C9.59559 9.6188 9.45826 9.56192 9.35701 9.46067C9.25576 9.35942 9.19888 9.2221 9.19888 9.07891V5.29966C9.19888 5.15647 9.25576 5.01915 9.35701 4.9179C9.45826 4.81665 9.59559 4.75977 9.73877 4.75977Z" fill="black"/>
<path fill-rule="evenodd" clip-rule="evenodd" d="M13.5174 9.07896C13.5174 9.22214 13.4605 9.35947 13.3593 9.46072C13.258 9.56197 13.1207 9.61885 12.9775 9.61885H9.73814C9.59495 9.61885 9.45762 9.56197 9.35637 9.46072C9.25512 9.35947 9.19824 9.22214 9.19824 9.07896C9.19824 8.93577 9.25512 8.79844 9.35637 8.69719C9.45762 8.59594 9.59495 8.53906 9.73814 8.53906H12.9775C13.1207 8.53906 13.258 8.59594 13.3593 8.69719C13.4605 8.79844 13.5174 8.93577 13.5174 9.07896Z" fill="black"/>
</svg>
