<svg xmlns="http://www.w3.org/2000/svg" xmlns:xlink="http://www.w3.org/1999/xlink" width="500" zoomAndPan="magnify" viewBox="0 0 375 374.999991" height="500" preserveAspectRatio="xMidYMid meet" version="1.0"><defs><clipPath id="c46543fac8"><path d="M 34.535156 34.535156 L 340.464844 34.535156 L 340.464844 340.464844 L 34.535156 340.464844 Z M 34.535156 34.535156 " clip-rule="nonzero"/></clipPath><clipPath id="2155113aed"><path d="M 72.785156 34.535156 L 302.214844 34.535156 C 323.335938 34.535156 340.464844 51.664062 340.464844 72.785156 L 340.464844 302.214844 C 340.464844 323.339844 323.335938 340.464844 302.214844 340.464844 L 72.785156 340.464844 C 51.664062 340.464844 34.535156 323.339844 34.535156 302.214844 L 34.535156 72.785156 C 34.535156 51.664062 51.664062 34.535156 72.785156 34.535156 Z M 72.785156 34.535156 " clip-rule="nonzero"/></clipPath><clipPath id="d4b1f20db2"><path d="M 34.535156 34.535156 L 340.605469 34.535156 L 340.605469 340.605469 L 34.535156 340.605469 Z M 34.535156 34.535156 " clip-rule="nonzero"/></clipPath><clipPath id="d51267eedc"><path d="M 72.785156 34.535156 L 302.210938 34.535156 C 323.335938 34.535156 340.460938 51.660156 340.460938 72.785156 L 340.460938 302.210938 C 340.460938 323.335938 323.335938 340.460938 302.210938 340.460938 L 72.785156 340.460938 C 51.660156 340.460938 34.535156 323.335938 34.535156 302.210938 L 34.535156 72.785156 C 34.535156 51.660156 51.660156 34.535156 72.785156 34.535156 Z M 72.785156 34.535156 " clip-rule="nonzero"/></clipPath><clipPath id="03048782c9"><path d="M 98 85 L 281.398438 85 L 281.398438 293.738281 L 98 293.738281 Z M 98 85 " clip-rule="nonzero"/></clipPath></defs><g clip-path="url(#c46543fac8)"><g clip-path="url(#2155113aed)"><path fill="#ffffff" d="M 34.535156 34.535156 L 340.464844 34.535156 L 340.464844 340.464844 L 34.535156 340.464844 Z M 34.535156 34.535156 " fill-opacity="1" fill-rule="nonzero"/></g></g><g clip-path="url(#d4b1f20db2)"><g clip-path="url(#d51267eedc)"><path stroke-linecap="butt" transform="matrix(0.579673, 0, 0, 0.579673, 34.537008, 34.536996)" fill="none" stroke-linejoin="miter" d="M 65.982315 -0.003174 L 461.767332 -0.003174 C 498.210309 -0.003174 527.75284 29.539358 527.75284 65.982335 L 527.75284 461.767352 C 527.75284 498.210329 498.210309 527.75286 461.767332 527.75286 L 65.982315 527.75286 C 29.539338 527.75286 -0.00319419 498.210329 -0.00319419 461.767352 L -0.00319419 65.982335 C -0.00319419 29.539358 29.539338 -0.003174 65.982315 -0.003174 Z M 65.982315 -0.003174 " stroke="#ffffff" stroke-width="36.227333" stroke-opacity="1" stroke-miterlimit="4"/></g></g><g clip-path="url(#03048782c9)"><path fill="#ffffff" d="M 267.511719 97.664062 C 259.246094 89.789062 248.167969 85.394531 236.75 85.433594 C 224.960938 85.476562 213.882812 90.089844 205.542969 98.429688 L 189.640625 114.335938 L 174.132812 98.828125 C 156.859375 81.558594 128.734375 81.015625 111.292969 98.121094 C 93.679688 115.394531 93.574219 143.777344 110.980469 161.179688 L 195.195312 245.394531 C 204.808594 255.007812 205.253906 270.65625 195.832031 280.449219 C 186.191406 290.46875 170.179688 290.585938 160.390625 280.796875 L 139.53125 259.9375 C 138.648438 259.058594 138.5625 257.664062 139.316406 256.671875 C 142.398438 252.621094 144.101562 247.472656 143.71875 241.925781 C 142.96875 230.96875 134.011719 222.164062 123.050781 221.589844 C 110.351562 220.929688 99.824219 231.152344 99.992188 243.75 C 100.144531 255.414062 109.652344 265.039062 121.3125 265.332031 C 125.078125 265.429688 128.628906 264.570312 131.757812 262.984375 C 132.707031 262.5 133.859375 262.703125 134.609375 263.457031 L 156.160156 285.011719 C 162.164062 291.015625 170.046875 294.011719 177.929688 294.011719 C 185.8125 294.011719 193.699219 291.011719 199.699219 285.011719 C 211.703125 273.007812 211.703125 253.476562 199.699219 241.472656 L 115.199219 156.964844 C 100.226562 141.988281 100.226562 117.625 115.199219 102.648438 C 130.175781 87.675781 154.542969 87.675781 169.515625 102.648438 L 187.453125 120.585938 C 188.054688 121.1875 188.847656 121.472656 189.640625 121.453125 C 190.429688 121.472656 191.226562 121.1875 191.828125 120.585938 L 209.40625 103.007812 C 216.695312 95.714844 226.539062 91.421875 236.847656 91.402344 C 247.132812 91.382812 256.8125 95.378906 264.082031 102.648438 C 271.347656 109.921875 275.34375 119.582031 275.332031 129.867188 C 275.316406 140.179688 271.015625 150.03125 263.726562 157.328125 L 258.042969 163.007812 C 257.578125 163.476562 256.941406 163.738281 256.28125 163.738281 L 239.339844 163.738281 C 238.402344 163.738281 237.535156 163.207031 237.121094 162.367188 L 228.9375 146.003906 C 228.023438 144.171875 225.410156 144.171875 224.496094 146.003906 L 210.433594 174.101562 C 209.519531 175.933594 206.90625 175.933594 205.992188 174.101562 L 201.191406 164.492188 C 200.277344 162.660156 197.660156 162.660156 196.746094 164.492188 L 191.945312 174.097656 C 191.03125 175.929688 188.417969 175.929688 187.503906 174.097656 L 173.453125 145.996094 C 172.535156 144.160156 169.921875 144.160156 169.007812 145.996094 L 160.828125 162.355469 C 160.40625 163.195312 159.542969 163.730469 158.605469 163.730469 L 143.617188 163.730469 C 141.980469 163.730469 140.558594 164.984375 140.507812 166.621094 C 140.460938 168.3125 141.8125 169.691406 143.492188 169.691406 L 162.292969 169.691406 C 163.234375 169.691406 164.097656 169.160156 164.515625 168.320312 L 169.007812 159.328125 C 169.921875 157.496094 172.535156 157.496094 173.453125 159.328125 L 187.503906 187.429688 C 188.417969 189.265625 191.03125 189.265625 191.945312 187.429688 L 196.746094 177.828125 C 197.660156 175.996094 200.277344 175.996094 201.191406 177.828125 L 205.992188 187.4375 C 206.90625 189.269531 209.519531 189.269531 210.433594 187.4375 L 224.484375 159.335938 C 225.398438 157.507812 228.015625 157.5 228.929688 159.335938 L 233.425781 168.324219 C 233.847656 169.164062 234.707031 169.699219 235.648438 169.699219 L 258.535156 169.699219 C 258.535156 169.699219 258.535156 169.699219 258.539062 169.699219 L 258.546875 169.699219 C 258.730469 169.699219 258.910156 169.679688 259.082031 169.648438 C 259.09375 169.648438 259.109375 169.644531 259.117188 169.644531 C 259.292969 169.609375 259.464844 169.558594 259.628906 169.492188 C 259.644531 169.488281 259.660156 169.484375 259.675781 169.480469 C 259.839844 169.410156 259.996094 169.324219 260.144531 169.230469 C 260.160156 169.21875 260.175781 169.214844 260.191406 169.207031 C 260.351562 169.097656 260.5 168.976562 260.636719 168.84375 C 260.644531 168.839844 260.644531 168.839844 260.648438 168.832031 L 267.863281 161.617188 C 276.402344 153.078125 281.390625 141.511719 281.292969 129.433594 C 281.195312 117.355469 276.300781 106.039062 267.511719 97.664062 Z M 105.957031 243.449219 C 105.957031 234.667969 113.105469 227.527344 121.882812 227.527344 C 130.660156 227.527344 137.804688 234.671875 137.804688 243.449219 C 137.804688 252.234375 130.660156 259.375 121.882812 259.375 C 113.105469 259.375 105.957031 252.234375 105.957031 243.449219 Z M 105.957031 243.449219 " fill-opacity="1" fill-rule="nonzero"/></g></svg>