<svg width="132" height="79" viewBox="0 0 132 79" fill="none" xmlns="http://www.w3.org/2000/svg">
<mask id="mask0_830_13" style="mask-type:luminance" maskUnits="userSpaceOnUse" x="4" y="16" width="41" height="47">
<path d="M4.224 16.6484H44.528V62.4084H4.224V16.6484Z" fill="white"/>
</mask>
<g mask="url(#mask0_830_13)">
<path d="M41.4164 19.3295C39.6069 17.6053 37.1814 16.6428 34.6816 16.6524C32.1007 16.662 29.6739 17.6713 27.8479 19.4973L24.3664 22.9802L20.9715 19.5839C17.1889 15.8027 11.0303 15.6844 7.21188 19.4299C3.355 23.2112 3.333 29.4262 7.14313 33.2363L25.5833 51.675C27.687 53.7802 27.786 57.2067 25.7221 59.3503C23.6115 61.5448 20.1053 61.5709 17.9616 59.4273L13.3939 54.8595C13.2014 54.667 13.1821 54.3618 13.3471 54.1445C14.0223 53.2577 14.3963 52.1302 14.3124 50.916C14.1474 48.518 12.1866 46.5889 9.78588 46.4638C7.00563 46.3194 4.70113 48.5579 4.73825 51.3148C4.77125 53.8695 6.853 55.9774 9.40638 56.042C10.23 56.0627 11.0083 55.8743 11.693 55.5264C11.9006 55.4205 12.1523 55.4659 12.3173 55.6295L17.0363 60.3499C18.3508 61.6644 20.0764 62.3203 21.802 62.3203C23.5276 62.3203 25.2546 61.663 26.5691 60.3499C29.1968 57.7223 29.1968 53.4447 26.5691 50.817L8.06713 32.3137C4.78913 29.0343 4.78913 23.7007 8.06713 20.4213C11.3465 17.1419 16.6815 17.1419 19.9595 20.4213L23.8879 24.3483C24.0185 24.4803 24.1931 24.5422 24.3664 24.538C24.5396 24.5422 24.7129 24.4803 24.8449 24.3483L28.6935 20.4997C30.2899 18.9033 32.4445 17.9628 34.7023 17.9587C36.9545 17.9545 39.0734 18.829 40.6656 20.4213C42.2565 22.0135 43.131 24.1297 43.1283 26.3805C43.1255 28.6383 42.1836 30.7957 40.5872 32.3934L39.3429 33.6364C39.2411 33.7395 39.1022 33.7973 38.9565 33.7973H35.2481C35.0433 33.7973 34.8535 33.6804 34.7614 33.4962L32.9711 29.9143C32.7704 29.5128 32.1984 29.5128 31.9976 29.9143L28.919 36.066C28.7196 36.4675 28.1463 36.4675 27.9469 36.066L26.895 33.9623C26.6943 33.5608 26.1223 33.5608 25.9229 33.9623L24.871 36.0647C24.6703 36.4662 24.0983 36.4662 23.8975 36.0647L20.8216 29.9115C20.6209 29.51 20.0489 29.51 19.8495 29.9115L18.0579 33.4948C17.9658 33.6777 17.7774 33.7945 17.5711 33.7945H14.289C13.9315 33.7945 13.6194 34.0695 13.6084 34.4284C13.5974 34.7983 13.8944 35.1008 14.2615 35.1008H18.3783C18.5845 35.1008 18.7743 34.9839 18.865 34.7997L19.8495 32.832C20.0489 32.4305 20.6209 32.4305 20.8216 32.832L23.8975 38.9852C24.0983 39.3867 24.6703 39.3867 24.871 38.9852L25.9229 36.8814C26.1223 36.4799 26.6943 36.4799 26.895 36.8814L27.9469 38.9852C28.1463 39.3867 28.7196 39.3867 28.919 38.9852L31.9963 32.8334C32.1956 32.4319 32.769 32.4305 32.9684 32.8334L33.9529 34.801C34.0464 34.9853 34.2348 35.1022 34.4396 35.1022H39.4515C39.4515 35.1022 39.4515 35.1022 39.4529 35.1022C39.4941 35.1022 39.5326 35.0967 39.5711 35.0912C39.5725 35.0912 39.5766 35.0898 39.578 35.0898C39.6165 35.0815 39.655 35.0705 39.6908 35.0568C39.6935 35.0554 39.6976 35.0554 39.7004 35.054C39.7361 35.0389 39.7705 35.0197 39.8035 34.999C39.8076 34.9977 39.8104 34.9963 39.8131 34.9935C39.8489 34.9702 39.8805 34.944 39.9121 34.9152C39.9121 34.9138 39.9121 34.9138 39.9135 34.9124L41.4934 33.3325C43.3634 31.4625 44.4551 28.9298 44.4345 26.2857C44.4125 23.6415 43.34 21.1638 41.4164 19.3295ZM6.04313 51.2502C6.04313 49.3265 7.60788 47.7632 9.53013 47.7632C11.4524 47.7632 13.0171 49.3279 13.0171 51.2502C13.0171 53.1724 11.4524 54.7372 9.53013 54.7372C7.60788 54.7372 6.04313 53.1724 6.04313 51.2502Z" fill="#3E36B0"/>
</g>
<path d="M49.8863 54.426V37.959H48.0823L41.9883 52.3745H41.9223L35.8173 37.959H34.0243V54.426H35.4873V40.918H35.5533L41.2733 54.3435H42.6263L48.3573 40.918H48.4233V54.426H49.8863Z" fill="black"/>
<path d="M56.7029 54.619C59.9314 54.619 62.1094 52.2595 62.1094 48.492C62.1094 44.7135 59.9314 42.365 56.7029 42.365C53.4854 42.365 51.2964 44.7135 51.2964 48.492C51.2964 52.2595 53.4744 54.619 56.7029 54.619ZM56.7029 53.288C54.3764 53.288 52.8364 51.506 52.8364 48.492C52.8364 45.478 54.3764 43.7015 56.7029 43.7015C59.0294 43.7015 60.5804 45.478 60.5804 48.492C60.5804 51.506 59.0294 53.288 56.7029 53.288ZM57.3189 40.759L60.1239 37.3105H58.4629L55.9604 40.759H57.3189Z" fill="black"/>
<path d="M64.8887 42.557H63.3817V55.2015C63.3817 56.637 62.8262 57.187 61.4182 57.187C61.4072 57.187 61.1212 57.187 61.1102 57.187V58.463C61.1212 58.4795 61.4402 58.4795 61.4787 58.4795C63.7942 58.4795 64.8887 57.484 64.8887 55.1795V42.557ZM64.1352 40.1645C64.6962 40.1645 65.1527 39.719 65.1527 39.158C65.1527 38.608 64.6962 38.168 64.1352 38.168C63.5907 38.168 63.1342 38.608 63.1342 39.158C63.1342 39.719 63.5907 40.1645 64.1352 40.1645Z" fill="black"/>
<path d="M76.7925 53.0125H68.5425V37.959H66.9915V54.426H76.7925V53.0125Z" fill="black"/>
<path d="M82.6051 43.6907C84.7501 43.6907 86.1801 45.3187 86.2131 47.6617H78.8871C79.0136 45.3187 80.4821 43.6907 82.6051 43.6907ZM86.1196 51.0607C85.7896 52.3587 84.5466 53.2992 82.7536 53.2992C80.3941 53.2992 78.8761 51.6327 78.8761 48.9487V48.8607H87.7641V48.2172C87.7641 44.6807 85.7786 42.3652 82.6271 42.3652C79.4096 42.3652 77.3251 44.8402 77.3251 48.5252C77.3251 52.2927 79.3876 54.6192 82.7206 54.6192C85.3331 54.6192 87.2636 53.1122 87.6156 51.0607H86.1196Z" fill="black"/>
<path d="M90.5632 48.1725V37.959H89.0452V54.426H90.5632V49.828L91.8887 48.607L96.6352 54.426H98.4007L92.9722 47.683L98.3017 42.557H96.4317L90.5632 48.1725Z" fill="black"/>
<path d="M102.849 53.3212C101.237 53.3212 100.132 52.4302 100.132 51.1377C100.132 49.8287 101.171 49.0202 103.041 48.8937L106.556 48.6517V49.9662C106.556 51.8472 104.922 53.3212 102.849 53.3212ZM102.541 54.6192C104.306 54.6192 105.929 53.6402 106.589 52.1662H106.622V54.4267H108.063V46.3032C108.063 43.8832 106.363 42.3652 103.657 42.3652C100.951 42.3652 99.2076 43.8722 99.0371 45.9952H100.495C100.759 44.5542 101.875 43.7017 103.624 43.7017C105.472 43.7017 106.556 44.7247 106.556 46.4407V47.4637L102.86 47.6947C100.121 47.8762 98.6026 49.1082 98.6026 51.1377C98.6026 53.2167 100.198 54.6192 102.541 54.6192Z" fill="black"/>
<path d="M109.756 54.4267H111.258V47.0347C111.258 45.1152 112.33 43.8007 114.019 43.8007C114.536 43.8007 114.959 43.8832 115.152 43.9767V42.4917C114.97 42.4477 114.613 42.3652 114.217 42.3652C112.754 42.3652 111.648 43.2232 111.214 44.6697H111.181V42.5577H109.756V54.4267Z" fill="black"/>
<path d="M115.543 54.4256H124.365V53.1716H117.275V53.1386L124.343 43.7006V42.5566H115.543V43.8161H122.605V43.8491L115.543 53.3091V54.4256Z" fill="black"/>
</svg>
