<svg width="20" height="20" viewBox="0 0 20 20" fill="none" xmlns="http://www.w3.org/2000/svg">
<g clip-path="url(#clip0_804_4739)">
<path d="M10 15.11L4.94429 10.0557L5.95571 9.02714L9.28571 12.3571V0H10.7143V12.3571L14.0429 9.02857L15.0557 10.0557L10 15.11ZM2.30857 20C1.65048 20 1.10143 19.78 0.661428 19.34C0.221428 18.9 0.000952381 18.3505 0 17.6914V14.23H1.42857V17.6914C1.42857 17.9114 1.52 18.1133 1.70286 18.2971C1.88571 18.481 2.08714 18.5724 2.30714 18.5714H17.6929C17.9119 18.5714 18.1133 18.48 18.2971 18.2971C18.481 18.1143 18.5724 17.9124 18.5714 17.6914V14.23H20V17.6914C20 18.3495 19.78 18.8986 19.34 19.3386C18.9 19.7786 18.3505 19.999 17.6914 20H2.30857Z" fill="black"/>
</g>
<defs>
<clipPath id="clip0_804_4739">
<rect width="20" height="20" fill="white"/>
</clipPath>
</defs>
</svg>
