<svg width="18" height="19" viewBox="0 0 18 19" fill="none" xmlns="http://www.w3.org/2000/svg">
<path fill-rule="evenodd" clip-rule="evenodd" d="M16.8188 4.6445L9.71663 10.526C9.51481 10.6932 9.26096 10.7847 8.99887 10.7847C8.73679 10.7847 8.48294 10.6932 8.28113 10.526L1.18237 4.6445C1.14429 4.75915 1.12491 4.87919 1.125 5V14C1.125 14.2984 1.24353 14.5845 1.4545 14.7955C1.66548 15.0065 1.95163 15.125 2.25 15.125H15.75C16.0484 15.125 16.3345 15.0065 16.5455 14.7955C16.7565 14.5845 16.875 14.2984 16.875 14V5C16.8755 4.87925 16.8565 4.75921 16.8188 4.6445ZM2.25 2.75H15.75C16.3467 2.75 16.919 2.98705 17.341 3.40901C17.7629 3.83097 18 4.40326 18 5V14C18 14.5967 17.7629 15.169 17.341 15.591C16.919 16.0129 16.3467 16.25 15.75 16.25H2.25C1.65326 16.25 1.08097 16.0129 0.65901 15.591C0.237053 15.169 0 14.5967 0 14V5C0 4.40326 0.237053 3.83097 0.65901 3.40901C1.08097 2.98705 1.65326 2.75 2.25 2.75ZM2.01375 3.875L8.28675 9.05338C8.48766 9.21932 8.73994 9.31037 9.00052 9.31099C9.2611 9.3116 9.51381 9.22174 9.7155 9.05675L16.0515 3.875H2.01375Z" fill="black"/>
</svg>
