<svg width="18" height="19" viewBox="0 0 18 19" fill="none" xmlns="http://www.w3.org/2000/svg">
<path d="M17.2711 12.4631L13.1736 10.7348C12.988 10.66 12.7854 10.6299 12.5843 10.6473C12.3832 10.6647 12.1898 10.729 12.0218 10.8344C12.0047 10.8448 11.9885 10.8562 11.9732 10.8687L9.83163 12.5831C9.80941 12.5945 9.78468 12.6009 9.75939 12.6017C9.7341 12.6026 9.70894 12.5979 9.68591 12.588C8.30939 11.9626 6.88342 10.6287 6.21641 9.35112C6.2053 9.32978 6.19953 9.30632 6.19953 9.28255C6.19953 9.25878 6.2053 9.23532 6.21641 9.21398L8.04397 7.17308C8.05711 7.158 8.06927 7.14219 8.0804 7.12574C8.1909 6.96696 8.25764 6.78478 8.2746 6.59565C8.29156 6.40652 8.2582 6.21639 8.17755 6.04243L6.35432 2.1925C6.25078 1.96523 6.07172 1.7757 5.84401 1.65235C5.6163 1.529 5.35223 1.47849 5.09142 1.50839C3.95796 1.64864 2.91753 2.17253 2.16457 2.98216C1.41161 3.79179 0.997634 4.83176 1.00001 5.90773C1.00001 12.2998 6.5252 17.5 13.3168 17.5C14.4599 17.5021 15.5648 17.1124 16.425 16.4037C17.2852 15.6951 17.8419 14.716 17.991 13.6492C18.0227 13.4049 17.9698 13.1575 17.8401 12.9438C17.7104 12.7301 17.5108 12.5615 17.2711 12.4631ZM13.3168 16.5204C7.0994 16.5204 2.04086 11.7594 2.04086 5.90773C2.03796 5.07009 2.35919 4.26011 2.94453 3.62913C3.52987 2.99814 4.33928 2.58932 5.22153 2.47904H5.24148C5.27643 2.47965 5.31037 2.49019 5.33885 2.50927C5.36733 2.52836 5.38902 2.55509 5.40108 2.58598L7.23124 6.43183C7.24168 6.45322 7.24708 6.47647 7.24708 6.5C7.24708 6.52353 7.24168 6.54678 7.23124 6.56816L5.40021 8.61395C5.38661 8.62861 5.37415 8.64416 5.36291 8.66049C5.24834 8.82511 5.18087 9.01479 5.16704 9.21116C5.15321 9.40753 5.19349 9.60393 5.28398 9.78134C6.05334 11.2638 7.64064 12.7463 9.23314 13.4705C9.42275 13.5552 9.63244 13.5922 9.84177 13.5778C10.0511 13.5635 10.2529 13.4984 10.4275 13.3888C10.444 13.3782 10.4605 13.3668 10.4761 13.3545L12.6168 11.6402C12.6379 11.6295 12.6613 11.6232 12.6852 11.6218C12.7092 11.6204 12.7332 11.6239 12.7556 11.632L16.8539 13.3602C16.8874 13.3737 16.9155 13.3967 16.9344 13.426C16.9532 13.4553 16.9618 13.4894 16.9589 13.5235C16.8423 14.3543 16.4083 15.1166 15.7381 15.6681C15.0678 16.2197 14.2071 16.5226 13.3168 16.5204Z" fill="black"/>
</svg>
