<svg width="19" height="18" viewBox="0 0 19 18" fill="none" xmlns="http://www.w3.org/2000/svg">
<path d="M16.0806 11.2711L12.759 9.78256C12.6085 9.71807 12.4443 9.69215 12.2812 9.70712C12.1182 9.7221 11.9615 9.77751 11.8252 9.86834C11.8114 9.87725 11.7983 9.88712 11.7859 9.89787L10.0499 11.3744C10.0318 11.3843 10.0118 11.3897 9.99129 11.3905C9.97078 11.3912 9.95039 11.3872 9.93173 11.3787C8.81587 10.8401 7.65993 9.69115 7.11923 8.59076C7.11022 8.57237 7.10554 8.55217 7.10554 8.5317C7.10554 8.51122 7.11022 8.49102 7.11923 8.47264L8.60071 6.71482C8.61136 6.70183 8.62122 6.68821 8.63024 6.67404C8.71981 6.53729 8.77391 6.38038 8.78766 6.21748C8.80141 6.05458 8.77437 5.89083 8.70899 5.74099L7.23102 2.42506C7.14709 2.22931 7.00194 2.06607 6.81735 1.95983C6.63276 1.85359 6.41869 1.81008 6.20727 1.83584C5.28845 1.95663 4.44504 2.40786 3.83466 3.10519C3.22429 3.80252 2.88871 4.69825 2.89063 5.62498C2.89063 11.1304 7.36954 15.6094 12.875 15.6094C13.8017 15.6111 14.6973 15.2755 15.3946 14.6651C16.0919 14.0548 16.5432 13.2115 16.6641 12.2927C16.6898 12.0823 16.6469 11.8692 16.5418 11.6851C16.4366 11.501 16.2749 11.3558 16.0806 11.2711ZM12.875 14.7656C7.83501 14.7656 3.73438 10.665 3.73438 5.62498C3.73203 4.90352 3.99243 4.20589 4.46693 3.66242C4.94143 3.11896 5.59756 2.76684 6.31274 2.67185H6.32891C6.35725 2.67238 6.38476 2.68146 6.40785 2.6979C6.43094 2.71433 6.44852 2.73736 6.45829 2.76396L7.94188 6.07639C7.95034 6.0948 7.95472 6.11483 7.95472 6.1351C7.95472 6.15536 7.95034 6.17539 7.94188 6.19381L6.45759 7.95584C6.44657 7.96846 6.43646 7.98185 6.42735 7.99592C6.33447 8.13771 6.27978 8.30108 6.26857 8.47021C6.25736 8.63934 6.29001 8.8085 6.36337 8.96131C6.98704 10.2382 8.27376 11.5151 9.56469 12.1387C9.7184 12.2117 9.88838 12.2435 10.0581 12.2312C10.2278 12.2189 10.3913 12.1628 10.5329 12.0684C10.5463 12.0593 10.5596 12.0494 10.5723 12.0389L12.3076 10.5623C12.3247 10.5531 12.3436 10.5477 12.3631 10.5465C12.3825 10.5453 12.4019 10.5483 12.4201 10.5553L15.7424 12.0438C15.7695 12.0554 15.7923 12.0752 15.8076 12.1004C15.8228 12.1256 15.8298 12.155 15.8274 12.1844C15.7329 12.8999 15.3812 13.5566 14.8378 14.0316C14.2945 14.5066 13.5967 14.7675 12.875 14.7656Z" fill="#3E36B0"/>
</svg>
