<svg width="18" height="19" viewBox="0 0 18 19" fill="none" xmlns="http://www.w3.org/2000/svg">
<g clip-path="url(#clip0_1264_5283)">
<path d="M7.69767 11.8837V13.5581C6.36542 13.5581 5.08774 14.0874 4.1457 15.0294C3.20365 15.9715 2.67442 17.2491 2.67442 18.5814H1C1 16.8051 1.70565 15.1015 2.9617 13.8454C4.21776 12.5894 5.92134 11.8837 7.69767 11.8837ZM7.69767 11.0465C4.92233 11.0465 2.67442 8.7986 2.67442 6.02326C2.67442 3.24791 4.92233 1 7.69767 1C10.473 1 12.7209 3.24791 12.7209 6.02326C12.7209 8.7986 10.473 11.0465 7.69767 11.0465ZM7.69767 9.37209C9.54791 9.37209 11.0465 7.87349 11.0465 6.02326C11.0465 4.17302 9.54791 2.67442 7.69767 2.67442C5.84744 2.67442 4.34884 4.17302 4.34884 6.02326C4.34884 7.87349 5.84744 9.37209 7.69767 9.37209ZM9.87023 15.9115C9.7639 15.4651 9.7639 15 9.87023 14.5536L9.03972 14.0739L9.87693 12.6238L10.7074 13.1035C11.0409 12.7879 11.4438 12.555 11.8837 12.4237V11.4651H13.5581V12.4237C14.0035 12.556 14.4054 12.7921 14.7344 13.1035L15.5649 12.6238L16.4021 14.0739L15.5725 14.5536C15.6788 15 15.6788 15.4651 15.5725 15.9115L16.4021 16.3913L15.5649 17.8413L14.7344 17.3616C14.401 17.6772 13.9981 17.9101 13.5581 18.0414V19H11.8837V18.0414C11.4438 17.9101 11.0409 17.6772 10.7074 17.3616L9.87693 17.8413L9.03972 16.3913L9.87023 15.9115ZM12.7209 16.4884C13.054 16.4884 13.3734 16.3561 13.6089 16.1206C13.8444 15.885 13.9767 15.5656 13.9767 15.2326C13.9767 14.8995 13.8444 14.5801 13.6089 14.3446C13.3734 14.1091 13.054 13.9767 12.7209 13.9767C12.3879 13.9767 12.0684 14.1091 11.8329 14.3446C11.5974 14.5801 11.4651 14.8995 11.4651 15.2326C11.4651 15.5656 11.5974 15.885 11.8329 16.1206C12.0684 16.3561 12.3879 16.4884 12.7209 16.4884Z" fill="black"/>
</g>
<defs>
<clipPath id="clip0_1264_5283">
<rect width="18" height="18" fill="white" transform="translate(0 0.5)"/>
</clipPath>
</defs>
</svg>
