<svg width="38" height="38" viewBox="0 0 38 38" fill="none" xmlns="http://www.w3.org/2000/svg">
<g clip-path="url(#clip0_804_176)">
<path d="M19.136 -0.0136719C11.3466 -0.0136719 4.75 6.6203 4.75 14.4792C4.75 22.7085 12.3957 31.1244 17.5388 37.0393C17.5584 37.063 18.3897 37.9863 19.4138 37.9863H19.5047C20.5289 37.9863 21.3543 37.063 21.375 37.0393C26.2016 31.4907 33.25 22.3422 33.25 14.4792C33.25 6.6203 28.1046 -0.0136719 19.136 -0.0136719ZM19.6122 35.4463C19.5706 35.4878 19.51 35.5342 19.4566 35.5728C19.4019 35.5354 19.3426 35.4879 19.2987 35.4463L18.6776 34.732C13.8017 29.1383 7.125 21.4783 7.125 14.4792C7.125 7.91052 12.6255 2.36073 19.136 2.36073C27.2454 2.36073 30.875 8.44667 30.875 14.4792C30.875 19.7926 27.0851 26.8476 19.6122 35.4463ZM19.0415 7.17723C15.1067 7.17723 11.9165 10.3675 11.9165 14.3022C11.9165 18.237 15.1067 21.4272 19.0415 21.4272C22.9763 21.4272 26.1665 18.237 26.1665 14.3022C26.1665 10.3675 22.9763 7.17723 19.0415 7.17723ZM19.0415 19.0522C16.4225 19.0522 14.2369 16.8696 14.2369 14.25C14.2369 11.631 16.3678 9.49998 18.9869 9.49998C21.6077 9.49998 23.7369 11.631 23.7369 14.25C23.7381 16.8696 21.6623 19.0522 19.0415 19.0522Z" fill="black"/>
</g>
<defs>
<clipPath id="clip0_804_176">
<rect width="38" height="38" fill="white"/>
</clipPath>
</defs>
</svg>
