<svg width="24" height="24" viewBox="0 0 24 24" fill="none" xmlns="http://www.w3.org/2000/svg">
<path d="M12 0.480469C5.63758 0.480469 0.47998 5.63807 0.47998 12.0005C0.47998 18.3629 5.63758 23.5205 12 23.5205C18.3624 23.5205 23.52 18.3629 23.52 12.0005C23.52 5.63807 18.3624 0.480469 12 0.480469ZM16.686 9.91727C16.6908 10.0157 16.692 10.1141 16.692 10.2101C16.692 13.2101 14.4108 16.6673 10.2372 16.6673C9.00393 16.6693 7.79634 16.3151 6.75958 15.6473C6.93598 15.6689 7.11718 15.6773 7.30078 15.6773C8.36398 15.6773 9.34198 15.3161 10.1184 14.7065C9.64524 14.6972 9.18679 14.5405 8.80691 14.2583C8.42704 13.9761 8.14468 13.5824 7.99918 13.1321C8.33897 13.1967 8.689 13.1831 9.02278 13.0925C8.50924 12.9886 8.04742 12.7104 7.71563 12.3049C7.38384 11.8994 7.20251 11.3916 7.20238 10.8677V10.8401C7.50838 11.0093 7.85878 11.1125 8.23078 11.1245C7.74934 10.804 7.40852 10.3117 7.27803 9.74823C7.14755 9.18478 7.23724 8.59277 7.52878 8.09327C8.09873 8.79407 8.80949 9.36737 9.61506 9.77604C10.4206 10.1847 11.303 10.4197 12.2052 10.4657C12.0905 9.97884 12.1399 9.46776 12.3456 9.01188C12.5513 8.55599 12.9019 8.18086 13.3429 7.94479C13.7838 7.70871 14.2904 7.62494 14.7839 7.70648C15.2773 7.78801 15.73 8.0303 16.0716 8.39567C16.5794 8.2952 17.0664 8.10893 17.5116 7.84487C17.3423 8.37063 16.988 8.81708 16.5144 9.10127C16.9642 9.04709 17.4034 8.92616 17.8176 8.74247C17.5134 9.19834 17.1301 9.59619 16.686 9.91727Z" fill="white"/>
</svg>
