<svg width="20" height="16" viewBox="0 0 20 16" fill="none" xmlns="http://www.w3.org/2000/svg">
<path d="M2.91628 4.66685C2.91645 3.87678 3.12084 3.10017 3.50963 2.41238C3.89842 1.72459 4.4584 1.14898 5.13523 0.741405C5.81206 0.333834 6.58275 0.108144 7.37252 0.0862355C8.16229 0.0643271 8.94431 0.246945 9.64269 0.616367C10.3411 0.985789 10.9321 1.52947 11.3584 2.19465C11.7847 2.85983 12.0319 3.62392 12.0758 4.41276C12.1198 5.20161 11.9591 5.98843 11.6093 6.69686C11.2596 7.40529 10.7326 8.01128 10.0796 8.45602C11.4859 8.9718 12.7056 9.89661 13.5818 11.1114C14.458 12.3263 14.9507 13.7755 14.9963 15.2727C14.9943 15.4341 14.9301 15.5885 14.817 15.7037C14.7039 15.8189 14.5506 15.8859 14.3893 15.8907C14.2279 15.8956 14.0709 15.8379 13.9511 15.7297C13.8313 15.6215 13.7579 15.4712 13.7463 15.3102C13.6967 13.6864 13.0167 12.1457 11.8506 11.0147C10.6845 9.88365 9.12374 9.2511 7.4992 9.2511C5.87465 9.2511 4.31394 9.88365 3.1478 11.0147C1.98166 12.1457 1.30174 13.6864 1.25211 15.3102C1.24377 15.4734 1.17185 15.6268 1.05175 15.7376C0.931648 15.8484 0.772929 15.9078 0.609592 15.903C0.446255 15.8982 0.291291 15.8296 0.177899 15.712C0.0645064 15.5943 0.00170477 15.4369 0.00294779 15.2735C0.0484072 13.7762 0.540953 12.3268 1.41719 11.1118C2.29342 9.89679 3.51323 8.97185 4.91961 8.45602C4.30218 8.03551 3.79689 7.47045 3.44773 6.81004C3.09857 6.14963 2.91613 5.41388 2.91628 4.66685ZM7.49961 1.33352C6.61556 1.33352 5.76771 1.68471 5.14259 2.30983C4.51747 2.93495 4.16628 3.7828 4.16628 4.66685C4.16628 5.55091 4.51747 6.39875 5.14259 7.02387C5.76771 7.64899 6.61556 8.00018 7.49961 8.00018C8.38367 8.00018 9.23151 7.64899 9.85664 7.02387C10.4818 6.39875 10.8329 5.55091 10.8329 4.66685C10.8329 3.7828 10.4818 2.93495 9.85664 2.30983C9.23151 1.68471 8.38367 1.33352 7.49961 1.33352ZM14.4079 4.66685C14.2852 4.66685 14.1646 4.67518 14.0463 4.69185C13.9637 4.70664 13.8789 4.70465 13.7971 4.68597C13.7153 4.6673 13.638 4.63234 13.57 4.58317C13.502 4.53401 13.4446 4.47164 13.4012 4.3998C13.3578 4.32796 13.3293 4.24811 13.3174 4.16502C13.3055 4.08194 13.3105 3.99731 13.3321 3.91619C13.3536 3.83507 13.3913 3.75912 13.4428 3.69287C13.4943 3.62663 13.5587 3.57144 13.632 3.5306C13.7054 3.48976 13.7862 3.46412 13.8696 3.45518C14.6984 3.33535 15.5436 3.49452 16.272 3.90762C17.0004 4.32073 17.5709 4.96432 17.8934 5.73712C18.216 6.50992 18.2725 7.36805 18.054 8.17647C17.8354 8.98488 17.3543 9.69768 16.6863 10.2027C17.6683 10.6424 18.502 11.3569 19.087 12.2599C19.672 13.1629 19.9831 14.2159 19.9829 15.2919C19.9829 15.4576 19.9171 15.6166 19.7999 15.7338C19.6827 15.851 19.5237 15.9169 19.3579 15.9169C19.1922 15.9169 19.0332 15.851 18.916 15.7338C18.7988 15.6166 18.7329 15.4576 18.7329 15.2919C18.7332 14.3619 18.4338 13.4566 17.879 12.7102C17.3242 11.9639 16.5436 11.4162 15.6529 11.1485L15.2079 11.0152V9.61852L15.5496 9.44435C16.0561 9.1878 16.4613 8.76806 16.6999 8.25289C16.9384 7.73771 16.9964 7.15717 16.8645 6.60498C16.7325 6.0528 16.4183 5.56119 15.9726 5.20954C15.5269 4.85788 14.9757 4.6667 14.4079 4.66685Z" fill="black"/>
</svg>
