<svg width="38" height="32" viewBox="0 0 38 32" fill="none" xmlns="http://www.w3.org/2000/svg">
<path d="M37 29.3333H35.3333V15.6667C35.3333 15.0478 35.0875 14.4543 34.6499 14.0168C34.2123 13.5792 33.6188 13.3333 33 13.3333H23.3333V2.33333C23.3333 1.71449 23.0875 1.121 22.6499 0.683418C22.2123 0.245833 21.6188 0 21 0H5C4.38116 0 3.78767 0.245833 3.35008 0.683418C2.9125 1.121 2.66667 1.71449 2.66667 2.33333V29.3333H1C0.734784 29.3333 0.480429 29.4387 0.292893 29.6262C0.105357 29.8138 0 30.0681 0 30.3333C0 30.5986 0.105357 30.8529 0.292893 31.0404C0.480429 31.228 0.734784 31.3333 1 31.3333H37C37.2652 31.3333 37.5196 31.228 37.7071 31.0404C37.8946 30.8529 38 30.5986 38 30.3333C38 30.0681 37.8946 29.8138 37.7071 29.6262C37.5196 29.4387 37.2652 29.3333 37 29.3333ZM33 15.3333C33.0884 15.3333 33.1732 15.3685 33.2357 15.431C33.2982 15.4935 33.3333 15.5783 33.3333 15.6667V29.3333H23.3333V15.3333H33ZM4.66667 2.33333C4.66667 2.24493 4.70179 2.16014 4.7643 2.09763C4.82681 2.03512 4.91159 2 5 2H21C21.0884 2 21.1732 2.03512 21.2357 2.09763C21.2982 2.16014 21.3333 2.24493 21.3333 2.33333V29.3333H18V21C18 20.7348 17.8946 20.4804 17.7071 20.2929C17.5196 20.1054 17.2652 20 17 20H9C8.73478 20 8.48043 20.1054 8.29289 20.2929C8.10536 20.4804 8 20.7348 8 21V29.3333H4.66667V2.33333ZM16 29.3333H10V22H16V29.3333ZM8 10.3333C8 10.0681 8.10536 9.81376 8.29289 9.62623C8.48043 9.43869 8.73478 9.33333 9 9.33333H12V6.33333C12 6.06812 12.1054 5.81376 12.2929 5.62623C12.4804 5.43869 12.7348 5.33333 13 5.33333C13.2652 5.33333 13.5196 5.43869 13.7071 5.62623C13.8946 5.81376 14 6.06812 14 6.33333V9.33333H17C17.2652 9.33333 17.5196 9.43869 17.7071 9.62623C17.8946 9.81376 18 10.0681 18 10.3333C18 10.5985 17.8946 10.8529 17.7071 11.0404C17.5196 11.228 17.2652 11.3333 17 11.3333H14V14.3333C14 14.5985 13.8946 14.8529 13.7071 15.0404C13.5196 15.228 13.2652 15.3333 13 15.3333C12.7348 15.3333 12.4804 15.228 12.2929 15.0404C12.1054 14.8529 12 14.5985 12 14.3333V11.3333H9C8.73478 11.3333 8.48043 11.228 8.29289 11.0404C8.10536 10.8529 8 10.5985 8 10.3333Z" fill="black"/>
</svg>
