<svg width="35" height="31" viewBox="0 0 35 31" fill="none" xmlns="http://www.w3.org/2000/svg">
<path d="M14.4083 31C12.4087 31 10.5345 30.6452 8.78577 29.9356C7.03702 29.2261 5.50971 28.2507 4.20385 27.0095C2.89799 25.7683 1.87058 24.3172 1.12163 22.6562C0.372678 20.9952 -0.00119736 19.215 2.88058e-06 17.3156C0.00120312 15.4162 0.374478 13.6348 1.11983 11.9715C1.86518 10.3082 2.89199 8.856 4.20025 7.61482C5.50851 6.37249 7.03582 5.39654 8.78217 4.68696C10.5285 3.97739 12.4021 3.62203 14.4029 3.62089C15.033 3.62089 15.641 3.65682 16.2267 3.72869C16.8124 3.80056 17.4047 3.90723 18.0036 4.04869V5.84544C17.4035 5.67432 16.8112 5.54598 16.2267 5.46042C15.6422 5.37486 15.0342 5.33208 14.4029 5.33208C10.909 5.33208 7.9348 6.49798 5.48031 8.82977C3.02581 11.1616 1.79917 13.9884 1.80037 17.3104C1.80157 20.6324 3.02821 23.4593 5.48031 25.7911C7.9324 28.1229 10.9066 29.2888 14.4029 29.2888C17.8992 29.2888 20.8734 28.1229 23.3255 25.7911C25.7776 23.4593 27.0042 20.6302 27.0054 17.3036C27.0054 16.9944 26.9904 16.6784 26.9604 16.3556C26.9304 16.0328 26.874 15.715 26.7912 15.4025H28.6114C28.6714 15.6717 28.7194 15.9786 28.7554 16.3231C28.789 16.6676 28.8058 16.9967 28.8058 17.3104C28.8058 19.2122 28.4325 20.9929 27.686 22.6528C26.9394 24.3127 25.9132 25.7643 24.6074 27.0078C23.3003 28.249 21.7736 29.2244 20.0272 29.9339C18.2809 30.6446 16.4079 31 14.4083 31ZM20.0668 23.9054L13.5027 17.6664V8.75447H15.3031V16.9545L21.3415 22.6939L20.0668 23.9054ZM27.0054 11.9784V6.84478H21.6044V5.13358H27.0054V0H28.8058V5.13358H34.2069V6.84478H28.8058V11.9784H27.0054Z" fill="black"/>
</svg>
