<svg width="18" height="19" viewBox="0 0 18 19" fill="none" xmlns="http://www.w3.org/2000/svg">
<path d="M16.6596 1.22059H14.1702V0.301471C14.1702 0.155211 14.1097 0.0149427 14.002 -0.0884781C13.8942 -0.191899 13.7481 -0.25 13.5957 -0.25C13.4434 -0.25 13.2973 -0.191899 13.1895 -0.0884781C13.0818 0.0149427 13.0213 0.155211 13.0213 0.301471V1.22059H4.97872V0.301471C4.97872 0.155211 4.9182 0.0149427 4.81047 -0.0884781C4.70273 -0.191899 4.55661 -0.25 4.40426 -0.25C4.2519 -0.25 4.10578 -0.191899 3.99805 -0.0884781C3.89031 0.0149427 3.82979 0.155211 3.82979 0.301471V1.22059H1.34043C0.984923 1.22059 0.64398 1.35616 0.392602 1.59747C0.141223 1.83879 0 2.16608 0 2.50735V17.2132C0 17.5545 0.141223 17.8818 0.392602 18.1231C0.64398 18.3644 0.984923 18.5 1.34043 18.5H16.6596C17.0151 18.5 17.356 18.3644 17.6074 18.1231C17.8588 17.8818 18 17.5545 18 17.2132V2.50735C18 2.16608 17.8588 1.83879 17.6074 1.59747C17.356 1.35616 17.0151 1.22059 16.6596 1.22059ZM1.34043 2.32353H3.82979V3.24265C3.82979 3.38891 3.89031 3.52917 3.99805 3.6326C4.10578 3.73602 4.2519 3.79412 4.40426 3.79412C4.55661 3.79412 4.70273 3.73602 4.81047 3.6326C4.9182 3.52917 4.97872 3.38891 4.97872 3.24265V2.32353H13.0213V3.24265C13.0213 3.38891 13.0818 3.52917 13.1895 3.6326C13.2973 3.73602 13.4434 3.79412 13.5957 3.79412C13.7481 3.79412 13.8942 3.73602 14.002 3.6326C14.1097 3.52917 14.1702 3.38891 14.1702 3.24265V2.32353H16.6596C16.7104 2.32353 16.7591 2.3429 16.795 2.37737C16.8309 2.41184 16.8511 2.4586 16.8511 2.50735V5.63235H1.14894V2.50735C1.14894 2.4586 1.16911 2.41184 1.20502 2.37737C1.24093 2.3429 1.28964 2.32353 1.34043 2.32353ZM16.6596 17.3971H1.34043C1.28964 17.3971 1.24093 17.3777 1.20502 17.3432C1.16911 17.3087 1.14894 17.262 1.14894 17.2132V6.73529H16.8511V17.2132C16.8511 17.262 16.8309 17.3087 16.795 17.3432C16.7591 17.3777 16.7104 17.3971 16.6596 17.3971ZM7.2766 9.125V15.0074C7.2766 15.1536 7.21607 15.2939 7.10834 15.3973C7.0006 15.5007 6.85449 15.5588 6.70213 15.5588C6.54977 15.5588 6.40365 15.5007 6.29592 15.3973C6.18818 15.2939 6.12766 15.1536 6.12766 15.0074V10.0175L5.42681 10.3539C5.35929 10.3862 5.2858 10.4055 5.21052 10.4106C5.13525 10.4156 5.05967 10.4064 4.9881 10.3835C4.91653 10.3605 4.85037 10.3243 4.7934 10.2767C4.73643 10.2292 4.68976 10.1714 4.65606 10.1066C4.62237 10.0418 4.6023 9.97125 4.59701 9.89899C4.59171 9.82673 4.6013 9.75417 4.62521 9.68547C4.64913 9.61676 4.68691 9.55325 4.73639 9.49856C4.78588 9.44387 4.8461 9.39908 4.91362 9.36673L6.44553 8.63143C6.53313 8.58945 6.63045 8.56966 6.72826 8.57393C6.82606 8.57821 6.9211 8.60641 7.00437 8.65586C7.08763 8.70531 7.15634 8.77436 7.20399 8.85647C7.25163 8.93858 7.27663 9.03101 7.2766 9.125ZM12.9801 11.8134L10.9149 14.4559H12.8298C12.9821 14.4559 13.1283 14.514 13.236 14.6174C13.3437 14.7208 13.4043 14.8611 13.4043 15.0074C13.4043 15.1536 13.3437 15.2939 13.236 15.3973C13.1283 15.5007 12.9821 15.5588 12.8298 15.5588H9.76596C9.65927 15.5588 9.55469 15.5303 9.46394 15.4765C9.37319 15.4226 9.29985 15.3456 9.25214 15.254C9.20443 15.1624 9.18423 15.0598 9.19381 14.9578C9.20339 14.8558 9.24237 14.7584 9.30638 14.6765L12.0638 11.1471C12.1432 11.0469 12.2004 10.9322 12.2317 10.8099C12.263 10.6877 12.2678 10.5606 12.2459 10.4365C12.2239 10.3125 12.1757 10.194 12.1041 10.0886C12.0325 9.98314 11.9391 9.89293 11.8297 9.82355C11.7203 9.75417 11.5972 9.7071 11.4681 9.68526C11.339 9.66341 11.2066 9.66725 11.0791 9.69655C10.9516 9.72585 10.8317 9.77997 10.7269 9.85557C10.622 9.93117 10.5345 10.0266 10.4697 10.136C10.4354 10.2046 10.3868 10.2656 10.3268 10.3153C10.2667 10.3649 10.1967 10.4021 10.121 10.4245C10.0453 10.4469 9.96557 10.4541 9.88686 10.4455C9.80815 10.4369 9.73213 10.4128 9.6636 10.3746C9.59506 10.3365 9.53549 10.2852 9.48861 10.2239C9.44173 10.1625 9.40857 10.0926 9.39121 10.0184C9.37385 9.9442 9.37266 9.86736 9.38772 9.7927C9.40278 9.71804 9.43376 9.64717 9.47872 9.58456C9.6231 9.34663 9.81657 9.13951 10.0473 8.9759C10.278 8.81229 10.5411 8.69564 10.8204 8.6331C11.0998 8.57056 11.3895 8.56345 11.6718 8.6122C11.9541 8.66095 12.223 8.76454 12.4622 8.91661C12.7013 9.06868 12.9055 9.26604 13.0624 9.49657C13.2192 9.72711 13.3254 9.98597 13.3743 10.2573C13.4233 10.5286 13.414 10.8067 13.347 11.0744C13.28 11.3421 13.1568 11.5939 12.9849 11.8143L12.9801 11.8134Z" fill="black"/>
</svg>
