<svg width="15" height="19" viewBox="0 0 15 19" fill="none" xmlns="http://www.w3.org/2000/svg">
<path d="M7.04462 18.4989C5.02248 17.8984 3.34284 16.6736 2.0057 14.8246C0.668568 12.9756 0 10.892 0 8.57402V3.13155L7.04462 0.499878L14.0892 3.13155V8.57402C14.0892 10.8914 13.4207 12.9746 12.0835 14.8236C10.7464 16.6726 9.06676 17.8971 7.04462 18.4989ZM7.04462 17.4311C8.67159 16.9279 10.0302 15.9343 11.1204 14.4502C12.2107 12.9662 12.848 11.3093 13.0325 9.47975H7.04462V1.57368L1.00637 3.8189V9.00776C1.00637 9.13792 1.02315 9.29525 1.05669 9.47975H7.04462V17.4311Z" fill="black"/>
</svg>
