<svg width="18" height="19" viewBox="0 0 18 19" fill="none" xmlns="http://www.w3.org/2000/svg">
<path d="M9.5625 11.75C10.0101 11.75 10.4393 11.9278 10.7557 12.2443C11.0722 12.5607 11.25 12.9899 11.25 13.4375V14C11.25 16.2174 9.1575 18.5 5.625 18.5C2.0925 18.5 0 16.2174 0 14V13.4375C0 12.9899 0.17779 12.5607 0.494257 12.2443C0.810725 11.9278 1.23995 11.75 1.6875 11.75H9.5625ZM9.5625 12.875H1.6875C1.53832 12.875 1.39524 12.9343 1.28975 13.0398C1.18426 13.1452 1.125 13.2883 1.125 13.4375V14C1.125 15.6178 2.736 17.375 5.625 17.375C8.514 17.375 10.125 15.6178 10.125 14V13.4375C10.125 13.2883 10.0657 13.1452 9.96025 13.0398C9.85476 12.9343 9.71168 12.875 9.5625 12.875ZM5.625 4.4375C6.44551 4.4375 7.23242 4.76345 7.81261 5.34364C8.3928 5.92383 8.71875 6.71074 8.71875 7.53125C8.71875 8.35176 8.3928 9.13867 7.81261 9.71886C7.23242 10.2991 6.44551 10.625 5.625 10.625C4.80449 10.625 4.01758 10.2991 3.43739 9.71886C2.8572 9.13867 2.53125 8.35176 2.53125 7.53125C2.53125 6.71074 2.8572 5.92383 3.43739 5.34364C4.01758 4.76345 4.80449 4.4375 5.625 4.4375ZM15.75 0.5C16.3175 0.500104 16.8639 0.714618 17.2799 1.10057C17.6959 1.48652 17.9507 2.01539 17.9932 2.58125L18 2.75V5C18.0002 5.56765 17.7858 6.11439 17.3998 6.53062C17.0138 6.94685 16.4848 7.2018 15.9187 7.24437L15.75 7.25H14.0614L12.7136 9.05C12.1174 9.84425 10.9091 9.5225 10.7145 8.627L10.6954 8.50212L10.6875 8.375V7.17688L10.5997 7.15438C10.1952 7.03222 9.83319 6.79859 9.55524 6.48025C9.27729 6.16191 9.09461 5.77172 9.02812 5.35437L9.00562 5.16763L9 5V2.75C8.99982 2.18235 9.21421 1.63561 9.60018 1.21938C9.98616 0.803154 10.5152 0.548199 11.0813 0.505625L11.25 0.5H15.75ZM5.625 5.5625C5.36646 5.5625 5.11045 5.61342 4.87159 5.71236C4.63273 5.8113 4.4157 5.95632 4.23288 6.13913C4.05007 6.32195 3.90505 6.53898 3.80611 6.77784C3.70717 7.0167 3.65625 7.27271 3.65625 7.53125C3.65625 7.78979 3.70717 8.0458 3.80611 8.28466C3.90505 8.52352 4.05007 8.74055 4.23288 8.92337C4.4157 9.10618 4.63273 9.2512 4.87159 9.35014C5.11045 9.44908 5.36646 9.5 5.625 9.5C6.14714 9.5 6.6479 9.29258 7.01712 8.92337C7.38633 8.55415 7.59375 8.05339 7.59375 7.53125C7.59375 7.00911 7.38633 6.50835 7.01712 6.13913C6.6479 5.76992 6.14714 5.5625 5.625 5.5625ZM15.75 1.625H11.25C10.9745 1.62504 10.7085 1.7262 10.5026 1.9093C10.2967 2.09241 10.1651 2.34472 10.1329 2.61837L10.125 2.75V5C10.125 5.27555 10.2262 5.5415 10.4093 5.74742C10.5924 5.95333 10.8447 6.08489 11.1184 6.11713L11.25 6.125H11.8125V8.375L13.5 6.125H15.75C16.0256 6.12496 16.2915 6.0238 16.4974 5.8407C16.7033 5.65759 16.8349 5.40528 16.8671 5.13163L16.875 5V2.75C16.875 2.47445 16.7738 2.2085 16.5907 2.00258C16.4076 1.79667 16.1553 1.66511 15.8816 1.63287L15.75 1.625Z" fill="black"/>
</svg>
