<svg width="18" height="17" viewBox="0 0 18 17" fill="none" xmlns="http://www.w3.org/2000/svg">
<path d="M16.485 16.654L10.223 10.392C9.72298 10.818 9.14798 11.1477 8.49798 11.381C7.84798 11.6144 7.19465 11.731 6.53798 11.731C4.93665 11.731 3.58132 11.1767 2.47198 10.068C1.36265 8.95938 0.807983 7.60438 0.807983 6.00305C0.807983 4.40171 1.36198 3.04605 2.46998 1.93605C3.57798 0.826045 4.93265 0.270379 6.53398 0.269045C8.13532 0.267712 9.49132 0.822379 10.602 1.93305C11.7127 3.04371 12.268 4.39938 12.268 6.00005C12.268 6.69471 12.145 7.36705 11.899 8.01705C11.653 8.66705 11.3296 9.22305 10.929 9.68505L17.191 15.946L16.485 16.654ZM6.53898 10.73C7.86565 10.73 8.98565 10.2734 9.89898 9.36005C10.8123 8.44671 11.269 7.32638 11.269 5.99904C11.269 4.67171 10.8123 3.55171 9.89898 2.63905C8.98565 1.72638 7.86565 1.26971 6.53898 1.26905C5.21232 1.26838 4.09198 1.72505 3.17798 2.63905C2.26398 3.55305 1.80732 4.67305 1.80798 5.99904C1.80865 7.32504 2.26532 8.44505 3.17798 9.35905C4.09065 10.273 5.21065 10.7297 6.53798 10.729" fill="#696969"/>
</svg>
