<svg width="17" height="18" viewBox="0 0 17 18" fill="none" xmlns="http://www.w3.org/2000/svg">
<path d="M0 1.975C0 1.5175 0.182727 1.07874 0.507982 0.755241C0.833238 0.43174 1.27438 0.25 1.73436 0.25H7.0866C7.54654 0.250098 7.98761 0.431902 8.31279 0.755425L12.7441 5.16194C12.6517 5.23277 12.5642 5.30971 12.4822 5.39222L10.7149 7.15H8.6718C8.21182 7.15 7.77068 6.96826 7.44543 6.64476C7.12017 6.32126 6.93744 5.8825 6.93744 5.425V1.54375H1.73436C1.61937 1.54375 1.50908 1.58919 1.42777 1.67006C1.34645 1.75094 1.30077 1.86063 1.30077 1.975V15.775C1.30077 15.8894 1.34645 15.9991 1.42777 16.0799C1.50908 16.1608 1.61937 16.2063 1.73436 16.2063H12.1405C12.2555 16.2063 12.3658 16.1608 12.4471 16.0799C12.5284 15.9991 12.5741 15.8894 12.5741 15.775V13.3169L13.8749 12.0231V15.775C13.8749 16.2325 13.6922 16.6713 13.3669 16.9948C13.0416 17.3183 12.6005 17.5 12.1405 17.5H1.73436C1.27438 17.5 0.833238 17.3183 0.507982 16.9948C0.182727 16.6713 0 16.2325 0 15.775V1.975ZM8.6718 5.85625H11.6029L8.23821 2.50975V5.425C8.23821 5.53937 8.2839 5.64907 8.36521 5.72994C8.44652 5.81082 8.55681 5.85625 8.6718 5.85625ZM7.97546 11.0933L13.0944 6.00201C13.2775 5.81427 13.4962 5.66461 13.7379 5.56176C13.9797 5.45891 14.2396 5.40491 14.5025 5.40291C14.7654 5.40092 15.0261 5.45096 15.2694 5.55013C15.5127 5.6493 15.7337 5.79562 15.9196 5.98056C16.1055 6.16551 16.2525 6.38538 16.3522 6.62739C16.4518 6.86939 16.502 7.12869 16.4999 7.39019C16.4978 7.65169 16.4435 7.91017 16.34 8.15057C16.2365 8.39097 16.086 8.60849 15.8972 8.79048L10.7791 13.881C10.4802 14.1775 10.1062 14.3882 9.69681 14.4907L8.10987 14.8849C8.01028 14.9104 7.9072 14.9197 7.80462 14.9125H3.25193C3.07943 14.9125 2.91401 14.8443 2.79203 14.723C2.67006 14.6017 2.60154 14.4372 2.60154 14.2656C2.60154 14.0941 2.67006 13.9295 2.79203 13.8082C2.91401 13.6869 3.07943 13.6188 3.25193 13.6188H6.99901L7.36323 12.1698C7.46556 11.7618 7.67715 11.39 7.97546 11.0933Z" fill="black"/>
</svg>
